<svg xmlns="http://www.w3.org/2000/svg" xmlns:xlink="http://www.w3.org/1999/xlink" width="428.758" height="548.314" viewBox="0 0 428.758 548.314">
  <defs>
    <linearGradient id="linear-gradient" y1="0.5" x2="1" y2="0.5" gradientUnits="objectBoundingBox">
      <stop offset="0" stop-color="#b20049"/>
      <stop offset="0.492" stop-color="#ff0062"/>
      <stop offset="1" stop-color="#96003d"/>
    </linearGradient>
    <linearGradient id="linear-gradient-2" y1="0.5" x2="1" y2="0.5" gradientUnits="objectBoundingBox">
      <stop offset="0" stop-color="#ff0062"/>
      <stop offset="0.309" stop-color="#fc0061"/>
      <stop offset="0.489" stop-color="#f4005e"/>
      <stop offset="0.637" stop-color="#e60059"/>
      <stop offset="0.766" stop-color="#d20052"/>
      <stop offset="0.883" stop-color="#b80049"/>
      <stop offset="0.991" stop-color="#99003e"/>
      <stop offset="1" stop-color="#96003d"/>
    </linearGradient>
    <radialGradient id="radial-gradient" cx="0.5" cy="0.5" r="0.656" gradientTransform="translate(0.18) scale(0.639 1)" gradientUnits="objectBoundingBox">
      <stop offset="0" stop-color="#36a9e1"/>
      <stop offset="1" stop-color="#3366c2"/>
    </radialGradient>
  </defs>
  <g id="Grupo_55700" data-name="Grupo 55700" transform="translate(-587.984 -960)">
    <path id="Trazado_104254" data-name="Trazado 104254" d="M1130.5,1155.262v-57.707H930.488v59.407c0,7.514,44.955,13.607,100.409,13.607s100.409-6.093,100.409-13.607A2.582,2.582,0,0,0,1130.5,1155.262Z" transform="translate(-227.399 337.745)" fill="url(#linear-gradient)"/>
    <path id="Trazado_104637" data-name="Trazado 104637" d="M100.41,0c55.455,0,100.41,6.092,100.41,13.608S155.865,27.216,100.41,27.216,0,21.123,0,13.608,44.955,0,100.41,0Z" transform="translate(703.088 1421.691)" fill="url(#linear-gradient-2)"/>
    <path id="Trazado_104638" data-name="Trazado 104638" d="M54.022,12V2.758H57.26a4.251,4.251,0,0,1,2.552.644,2.2,2.2,0,0,1,.87,1.888,2.088,2.088,0,0,1-.349,1.2,2.017,2.017,0,0,1-.971.759,1.951,1.951,0,0,1,1.12.717,2.121,2.121,0,0,1,.409,1.32A2.439,2.439,0,0,1,60.04,11.3a3.829,3.829,0,0,1-2.425.7Zm1.9-4.024V10.47h1.631a1.574,1.574,0,0,0,1.051-.321,1.1,1.1,0,0,0,.378-.885,1.161,1.161,0,0,0-1.314-1.289Zm0-1.346h1.409q1.441-.025,1.441-1.149a1.062,1.062,0,0,0-.365-.9A1.92,1.92,0,0,0,57.26,4.3H55.927ZM66.178,12a2.037,2.037,0,0,1-.184-.616,2.22,2.22,0,0,1-1.733.743,2.439,2.439,0,0,1-1.673-.584,1.878,1.878,0,0,1-.663-1.473,1.941,1.941,0,0,1,.809-1.676,3.994,3.994,0,0,1,2.339-.59h.844V7.411a1.132,1.132,0,0,0-.244-.762.961.961,0,0,0-.771-.286,1.093,1.093,0,0,0-.727.222.755.755,0,0,0-.263.609H62.078a1.843,1.843,0,0,1,.368-1.1,2.434,2.434,0,0,1,1.041-.8A3.794,3.794,0,0,1,65,5a3,3,0,0,1,2.015.638,2.232,2.232,0,0,1,.746,1.793v2.977a3.284,3.284,0,0,0,.273,1.479V12Zm-1.517-1.276a1.58,1.58,0,0,0,.749-.181,1.188,1.188,0,0,0,.508-.486V8.877h-.686q-1.377,0-1.466.952l-.006.108A.734.734,0,0,0,64,10.5.937.937,0,0,0,64.661,10.724Zm8.227-.622a.591.591,0,0,0-.333-.53,3.785,3.785,0,0,0-1.07-.346q-2.45-.514-2.45-2.082a1.887,1.887,0,0,1,.759-1.527A3.06,3.06,0,0,1,71.777,5a3.293,3.293,0,0,1,2.092.616,1.94,1.94,0,0,1,.784,1.6H72.818a.888.888,0,0,0-.254-.651,1.075,1.075,0,0,0-.793-.257,1.1,1.1,0,0,0-.717.209.661.661,0,0,0-.254.533.565.565,0,0,0,.289.492,2.971,2.971,0,0,0,.974.324,7.958,7.958,0,0,1,1.155.308,1.9,1.9,0,0,1,1.454,1.847,1.792,1.792,0,0,1-.806,1.52,3.478,3.478,0,0,1-2.082.581,3.632,3.632,0,0,1-1.533-.308,2.572,2.572,0,0,1-1.051-.844,1.962,1.962,0,0,1-.381-1.158h1.739a.958.958,0,0,0,.362.749,1.435,1.435,0,0,0,.9.26,1.328,1.328,0,0,0,.8-.2A.622.622,0,0,0,72.888,10.1Zm6.125,2.025a3.372,3.372,0,0,1-2.46-.927A3.294,3.294,0,0,1,75.6,8.731V8.553A4.149,4.149,0,0,1,76,6.7a2.935,2.935,0,0,1,1.133-1.257A3.18,3.18,0,0,1,78.81,5a2.85,2.85,0,0,1,2.219.889,3.611,3.611,0,0,1,.809,2.52v.749H77.464A1.7,1.7,0,0,0,78,10.242a1.621,1.621,0,0,0,1.133.406A1.98,1.98,0,0,0,80.79,9.88l.9,1.009a2.754,2.754,0,0,1-1.117.911A3.665,3.665,0,0,1,79.013,12.127ZM78.8,6.484a1.146,1.146,0,0,0-.885.37,1.915,1.915,0,0,0-.435,1.058h2.552V7.765a1.366,1.366,0,0,0-.33-.947A1.183,1.183,0,0,0,78.8,6.484ZM85.83,8.515a4.139,4.139,0,0,1,.72-2.558A2.338,2.338,0,0,1,88.522,5a2.1,2.1,0,0,1,1.657.749V2.25h1.841V12H90.363l-.089-.73a2.159,2.159,0,0,1-1.765.857,2.331,2.331,0,0,1-1.946-.955A4.272,4.272,0,0,1,85.83,8.515Zm1.834.131A2.726,2.726,0,0,0,88,10.131a1.1,1.1,0,0,0,.978.517,1.227,1.227,0,0,0,1.2-.721V7.2a1.21,1.21,0,0,0-1.187-.721Q87.665,6.484,87.665,8.646ZM96.6,12.127a3.372,3.372,0,0,1-2.46-.927,3.294,3.294,0,0,1-.949-2.469V8.553a4.149,4.149,0,0,1,.4-1.85,2.935,2.935,0,0,1,1.133-1.257A3.18,3.18,0,0,1,96.4,5a2.85,2.85,0,0,1,2.219.889,3.611,3.611,0,0,1,.809,2.52v.749H95.054a1.7,1.7,0,0,0,.536,1.079,1.621,1.621,0,0,0,1.133.406A1.98,1.98,0,0,0,98.38,9.88l.9,1.009a2.754,2.754,0,0,1-1.117.911A3.665,3.665,0,0,1,96.6,12.127Zm-.209-5.643a1.146,1.146,0,0,0-.885.37,1.915,1.915,0,0,0-.435,1.058h2.552V7.765a1.366,1.366,0,0,0-.33-.947A1.183,1.183,0,0,0,96.393,6.484Zm7.027,2.031a4.139,4.139,0,0,1,.72-2.558A2.338,2.338,0,0,1,106.111,5a2.1,2.1,0,0,1,1.657.749V2.25h1.841V12h-1.657l-.089-.73a2.159,2.159,0,0,1-1.765.857,2.331,2.331,0,0,1-1.946-.955A4.272,4.272,0,0,1,103.42,8.515Zm1.834.131a2.726,2.726,0,0,0,.336,1.486,1.1,1.1,0,0,0,.978.517,1.227,1.227,0,0,0,1.2-.721V7.2a1.21,1.21,0,0,0-1.187-.721Q105.254,6.484,105.254,8.646ZM115.011,12a2.037,2.037,0,0,1-.184-.616,2.22,2.22,0,0,1-1.733.743,2.439,2.439,0,0,1-1.673-.584,1.878,1.878,0,0,1-.663-1.473,1.941,1.941,0,0,1,.809-1.676,3.994,3.994,0,0,1,2.339-.59h.844V7.411a1.132,1.132,0,0,0-.244-.762.961.961,0,0,0-.771-.286,1.093,1.093,0,0,0-.727.222.755.755,0,0,0-.263.609H110.91a1.843,1.843,0,0,1,.368-1.1,2.434,2.434,0,0,1,1.041-.8A3.794,3.794,0,0,1,113.83,5a3,3,0,0,1,2.015.638,2.232,2.232,0,0,1,.746,1.793v2.977a3.284,3.284,0,0,0,.273,1.479V12Zm-1.517-1.276a1.58,1.58,0,0,0,.749-.181,1.188,1.188,0,0,0,.508-.486V8.877h-.686q-1.377,0-1.466.952l-.006.108a.734.734,0,0,0,.241.565A.937.937,0,0,0,113.494,10.724Zm6.7-7.281V5.132h1.174V6.478H120.2V9.905a.818.818,0,0,0,.146.546.733.733,0,0,0,.559.165,2.926,2.926,0,0,0,.54-.044v1.39a3.777,3.777,0,0,1-1.111.165,1.752,1.752,0,0,1-1.968-1.949v-3.7h-1V5.132h1V3.443Zm1.72,5.059a4.073,4.073,0,0,1,.394-1.822,2.881,2.881,0,0,1,1.133-1.238A3.306,3.306,0,0,1,125.161,5a3.127,3.127,0,0,1,2.269.851,3.414,3.414,0,0,1,.981,2.311l.013.47a3.59,3.59,0,0,1-.882,2.536,3.42,3.42,0,0,1-4.739,0,3.653,3.653,0,0,1-.885-2.59Zm1.834.13a2.567,2.567,0,0,0,.368,1.5,1.323,1.323,0,0,0,2.095.006,2.809,2.809,0,0,0,.375-1.637,2.542,2.542,0,0,0-.375-1.488,1.217,1.217,0,0,0-1.054-.528,1.2,1.2,0,0,0-1.041.524A2.857,2.857,0,0,0,123.751,8.633Zm9.521,1.469a.591.591,0,0,0-.333-.53,3.785,3.785,0,0,0-1.07-.346q-2.45-.514-2.45-2.082a1.887,1.887,0,0,1,.759-1.527A3.06,3.06,0,0,1,132.162,5a3.293,3.293,0,0,1,2.092.616,1.94,1.94,0,0,1,.784,1.6H133.2a.888.888,0,0,0-.254-.651,1.075,1.075,0,0,0-.793-.257,1.1,1.1,0,0,0-.717.209.661.661,0,0,0-.254.533.565.565,0,0,0,.289.492,2.971,2.971,0,0,0,.974.324,7.959,7.959,0,0,1,1.155.308,1.9,1.9,0,0,1,1.454,1.847,1.792,1.792,0,0,1-.806,1.52,3.478,3.478,0,0,1-2.082.581,3.632,3.632,0,0,1-1.533-.308,2.572,2.572,0,0,1-1.051-.844,1.962,1.962,0,0,1-.381-1.158h1.739a.958.958,0,0,0,.362.749,1.435,1.435,0,0,0,.9.26,1.328,1.328,0,0,0,.8-.2A.622.622,0,0,0,133.273,10.1Z" transform="translate(709.133 1469.237)" fill="#fff"/>
    <path id="Trazado_104639" data-name="Trazado 104639" d="M0,0H4.09V73.314H0Z" transform="translate(801.453 1359.739)" fill="#95308e"/>
    <path id="Trazado_104640" data-name="Trazado 104640" d="M0,0H426.758V272.793H0Z" transform="translate(588.984 1120.715)" stroke="#fff" stroke-width="2" fill="url(#radial-gradient)"/>
    <path id="Trazado_104646" data-name="Trazado 104646" d="M0,0H384.842V88.668H0Z" transform="translate(608.09 1146.47)" fill="#d0e6f7" stroke="#fff" stroke-width="1"/>
    <g id="Grupo_55603" data-name="Grupo 55603" transform="translate(687.207 991.057)">
      <path id="Trazado_104255" data-name="Trazado 104255" d="M938.423,830.675a13.363,13.363,0,0,0-2.045,26.569v90.077h4.089V857.244a13.363,13.363,0,0,0-2.045-26.569Z" transform="translate(-917.019 -771.782)" fill="#95308e"/>
      <path id="Trazado_104256" data-name="Trazado 104256" d="M942.937,841.8V789.888h-4.089V841.8a21.692,21.692,0,0,0-19.359,18.2h3.965a17.766,17.766,0,0,1,34.878,0H962.3A21.693,21.693,0,0,0,942.937,841.8Z" transform="translate(-919.489 -789.888)" fill="#95308e"/>
    </g>
    <path id="Trazado_104650" data-name="Trazado 104650" d="M0,0H151.223V32.9H0Z" transform="translate(632.999 1163.302)" fill="#0991a1" stroke="#fff" stroke-width="1"/>
    <path id="Trazado_104651" data-name="Trazado 104651" d="M-15.136-4.424H-17.12V0h-2.49V-12.086h4.491a5.076,5.076,0,0,1,3.3.955,3.3,3.3,0,0,1,1.162,2.7,3.718,3.718,0,0,1-.535,2.063,3.651,3.651,0,0,1-1.623,1.316L-10.2-.116V0H-12.87ZM-17.12-6.441h2.009a2.057,2.057,0,0,0,1.453-.477,1.706,1.706,0,0,0,.515-1.316,1.826,1.826,0,0,0-.486-1.345,2.018,2.018,0,0,0-1.49-.49h-2ZM-1.49-5.254H-6.271V-2H-.66V0h-8.1V-12.086H-.677v2.017H-6.271v2.88H-1.49ZM7.068-3.171a1.278,1.278,0,0,0-.5-1.083,6.533,6.533,0,0,0-1.793-.8,12.71,12.71,0,0,1-2.05-.826,3.35,3.35,0,0,1-2.059-3,2.919,2.919,0,0,1,.552-1.747,3.6,3.6,0,0,1,1.585-1.2,5.967,5.967,0,0,1,2.32-.432,5.432,5.432,0,0,1,2.308.469,3.674,3.674,0,0,1,1.573,1.324,3.464,3.464,0,0,1,.56,1.942H7.076a1.63,1.63,0,0,0-.523-1.291,2.15,2.15,0,0,0-1.469-.461,2.3,2.3,0,0,0-1.419.386,1.217,1.217,0,0,0-.506,1.017,1.166,1.166,0,0,0,.594.988A6.705,6.705,0,0,0,5.5-7.13,7.55,7.55,0,0,1,8.6-5.545a3.157,3.157,0,0,1,.971,2.357A2.909,2.909,0,0,1,8.38-.726a5.2,5.2,0,0,1-3.2.892,6.171,6.171,0,0,1-2.54-.51A4.019,4.019,0,0,1,.9-1.743,3.582,3.582,0,0,1,.295-3.8h2.5q0,2,2.391,2A2.326,2.326,0,0,0,6.57-2.162,1.175,1.175,0,0,0,7.068-3.171Zm13.281-6.9h-3.7V0h-2.49V-10.069H10.5v-2.017h9.845Z" transform="translate(708.31 1186.371)" fill="#fff"/>
    <path id="Trazado_104656" data-name="Trazado 104656" d="M0,0H151.223V42.618H0Z" transform="translate(632.999 960)" fill="#ff0062"/>
    <path id="Trazado_104658" data-name="Trazado 104658" d="M-39.13-4.026A4.277,4.277,0,0,1-40.57-.955,5.058,5.058,0,0,1-43.994.166,4.548,4.548,0,0,1-47.651-1.4a6.416,6.416,0,0,1-1.332-4.3v-.739A7.245,7.245,0,0,1-48.369-9.5a4.6,4.6,0,0,1,1.756-2.038,4.918,4.918,0,0,1,2.652-.71,4.927,4.927,0,0,1,3.37,1.121,4.6,4.6,0,0,1,1.478,3.146H-41.6a2.524,2.524,0,0,0-.652-1.7,2.413,2.413,0,0,0-1.706-.527,2.116,2.116,0,0,0-1.864.892,5,5,0,0,0-.635,2.768v.913a5.352,5.352,0,0,0,.594,2.864,2.077,2.077,0,0,0,1.872.9,2.458,2.458,0,0,0,1.722-.527,2.381,2.381,0,0,0,.652-1.631ZM-35.121,0h-2.407V-12.75h2.407Zm4.507,0h-2.407V-8.981h2.407Zm-2.548-11.306a1.181,1.181,0,0,1,.361-.888,1.356,1.356,0,0,1,.984-.349,1.36,1.36,0,0,1,.979.349,1.175,1.175,0,0,1,.365.888,1.178,1.178,0,0,1-.369.9,1.363,1.363,0,0,1-.975.349,1.363,1.363,0,0,1-.975-.349A1.178,1.178,0,0,1-33.162-11.306ZM-24.5.166A4.409,4.409,0,0,1-27.72-1.046a4.308,4.308,0,0,1-1.241-3.229v-.232a5.426,5.426,0,0,1,.523-2.42,3.838,3.838,0,0,1,1.482-1.644,4.159,4.159,0,0,1,2.187-.577,3.727,3.727,0,0,1,2.9,1.162,4.722,4.722,0,0,1,1.058,3.3v.979h-5.719a2.229,2.229,0,0,0,.7,1.411,2.12,2.12,0,0,0,1.482.531,2.589,2.589,0,0,0,2.167-1L-21-1.453A3.6,3.6,0,0,1-22.462-.261,4.793,4.793,0,0,1-24.5.166Zm-.274-7.379a1.5,1.5,0,0,0-1.158.484A2.5,2.5,0,0,0-26.5-5.346h3.337v-.192A1.786,1.786,0,0,0-23.6-6.776,1.547,1.547,0,0,0-24.778-7.213Zm7.537-1.768.075,1.038a3.136,3.136,0,0,1,2.582-1.2,2.606,2.606,0,0,1,2.125.838A3.912,3.912,0,0,1-11.746-5.8V0h-2.4V-5.757a1.562,1.562,0,0,0-.332-1.111,1.484,1.484,0,0,0-1.1-.345,1.65,1.65,0,0,0-1.519.865V0h-2.4V-8.981Zm10.185-2.208v2.208H-5.52v1.76H-7.056v4.482a1.07,1.07,0,0,0,.191.714.959.959,0,0,0,.73.216,3.826,3.826,0,0,0,.706-.058V-.05A4.939,4.939,0,0,1-6.881.166,2.29,2.29,0,0,1-9.455-2.382V-7.222h-1.312v-1.76h1.312v-2.208ZM-.05.166A4.409,4.409,0,0,1-3.266-1.046,4.308,4.308,0,0,1-4.507-4.275v-.232a5.426,5.426,0,0,1,.523-2.42A3.838,3.838,0,0,1-2.5-8.571,4.159,4.159,0,0,1-.315-9.147a3.727,3.727,0,0,1,2.9,1.162,4.722,4.722,0,0,1,1.058,3.3v.979H-2.075a2.229,2.229,0,0,0,.7,1.411,2.12,2.12,0,0,0,1.482.531,2.589,2.589,0,0,0,2.167-1l1.179,1.32A3.6,3.6,0,0,1,1.992-.261,4.793,4.793,0,0,1-.05.166ZM-.324-7.213a1.5,1.5,0,0,0-1.158.484A2.5,2.5,0,0,0-2.05-5.346H1.287v-.192A1.786,1.786,0,0,0,.855-6.776,1.547,1.547,0,0,0-.324-7.213ZM13.871-4.424H11.887V0H9.4V-12.086h4.491a5.076,5.076,0,0,1,3.3.955,3.3,3.3,0,0,1,1.162,2.7,3.718,3.718,0,0,1-.535,2.063,3.651,3.651,0,0,1-1.623,1.316L18.81-.116V0H16.137ZM11.887-6.441H13.9a2.057,2.057,0,0,0,1.453-.477,1.706,1.706,0,0,0,.515-1.316,1.826,1.826,0,0,0-.486-1.345,2.018,2.018,0,0,0-1.49-.49h-2Zm15.63,1.187H22.736V-2h5.611V0h-8.1V-12.086h8.085v2.017H22.736v2.88h4.781Zm8.558,2.083a1.278,1.278,0,0,0-.5-1.083,6.533,6.533,0,0,0-1.793-.8,12.71,12.71,0,0,1-2.05-.826,3.35,3.35,0,0,1-2.059-3,2.919,2.919,0,0,1,.552-1.747,3.6,3.6,0,0,1,1.585-1.2,5.967,5.967,0,0,1,2.32-.432,5.432,5.432,0,0,1,2.308.469,3.674,3.674,0,0,1,1.573,1.324,3.464,3.464,0,0,1,.56,1.942h-2.49a1.63,1.63,0,0,0-.523-1.291,2.15,2.15,0,0,0-1.469-.461,2.3,2.3,0,0,0-1.419.386,1.217,1.217,0,0,0-.506,1.017,1.166,1.166,0,0,0,.594.988,6.705,6.705,0,0,0,1.747.747,7.55,7.55,0,0,1,3.1,1.585,3.157,3.157,0,0,1,.971,2.357A2.909,2.909,0,0,1,37.387-.726a5.2,5.2,0,0,1-3.2.892,6.171,6.171,0,0,1-2.54-.51,4.019,4.019,0,0,1-1.747-1.4A3.582,3.582,0,0,1,29.3-3.8h2.5q0,2,2.391,2a2.326,2.326,0,0,0,1.386-.361A1.175,1.175,0,0,0,36.075-3.171Zm13.281-6.9h-3.7V0h-2.49V-10.069H39.512v-2.017h9.845Z" transform="translate(706.988 987.236)" fill="#fff"/>
    <g id="Grupo_55604" data-name="Grupo 55604" transform="translate(871.008 991.057)">
      <path id="Trazado_104257" data-name="Trazado 104257" d="M1065.718,830.675a13.363,13.363,0,0,0-2.046,26.569v90.077h4.091V857.244a13.363,13.363,0,0,0-2.044-26.569Z" transform="translate(-1044.313 -771.782)" fill="#95308e"/>
      <path id="Trazado_104258" data-name="Trazado 104258" d="M1070.232,841.8V789.888h-4.091V841.8a21.693,21.693,0,0,0-19.358,18.2h3.965a17.766,17.766,0,0,1,34.877,0h3.965A21.692,21.692,0,0,0,1070.232,841.8Z" transform="translate(-1046.783 -789.888)" fill="#95308e"/>
    </g>
    <path id="Trazado_104652" data-name="Trazado 104652" d="M0,0H151.223V32.9H0Z" transform="translate(816.8 1163.302)" fill="#0991a1" stroke="#fff" stroke-width="1"/>
    <path id="Trazado_104653" data-name="Trazado 104653" d="M-13.988-2.984A1.2,1.2,0,0,0-14.457-4a6.148,6.148,0,0,0-1.687-.75,11.963,11.963,0,0,1-1.93-.777,3.153,3.153,0,0,1-1.937-2.82A2.747,2.747,0,0,1-19.492-10,3.389,3.389,0,0,1-18-11.125a5.616,5.616,0,0,1,2.184-.406,5.112,5.112,0,0,1,2.172.441,3.458,3.458,0,0,1,1.48,1.246,3.261,3.261,0,0,1,.527,1.828H-13.98a1.534,1.534,0,0,0-.492-1.215,2.023,2.023,0,0,0-1.383-.434,2.162,2.162,0,0,0-1.336.363,1.146,1.146,0,0,0-.477.957,1.1,1.1,0,0,0,.559.93,6.311,6.311,0,0,0,1.645.7,7.106,7.106,0,0,1,2.914,1.492A2.972,2.972,0,0,1-11.637-3,2.737,2.737,0,0,1-12.754-.684a4.891,4.891,0,0,1-3.008.84,5.808,5.808,0,0,1-2.391-.48A3.783,3.783,0,0,1-19.8-1.641a3.371,3.371,0,0,1-.566-1.937h2.352q0,1.883,2.25,1.883a2.189,2.189,0,0,0,1.3-.34A1.106,1.106,0,0,0-13.988-2.984ZM-.707-5.43A6.867,6.867,0,0,1-1.3-2.484,4.472,4.472,0,0,1-3-.531,4.7,4.7,0,0,1-5.535.156a4.732,4.732,0,0,1-2.523-.68A4.515,4.515,0,0,1-9.777-2.465a6.67,6.67,0,0,1-.617-2.9V-5.93a6.831,6.831,0,0,1,.605-2.957,4.508,4.508,0,0,1,1.711-1.961,4.706,4.706,0,0,1,2.527-.684,4.706,4.706,0,0,1,2.527.684A4.508,4.508,0,0,1-1.312-8.887,6.811,6.811,0,0,1-.707-5.937Zm-2.375-.516a4.787,4.787,0,0,0-.641-2.719,2.088,2.088,0,0,0-1.828-.93,2.088,2.088,0,0,0-1.82.918A4.732,4.732,0,0,0-8.02-5.984v.555a4.847,4.847,0,0,0,.641,2.7,2.082,2.082,0,0,0,1.844.961,2.064,2.064,0,0,0,1.813-.926,4.819,4.819,0,0,0,.641-2.7Zm10.336,3.6H3.145L2.363,0H-.129L4.105-11.375H6.277L10.535,0H8.043Zm-3.477-1.9H6.621L5.191-8.5Zm10.164.234V0H11.6V-11.375h4.438a5.134,5.134,0,0,1,2.254.469,3.454,3.454,0,0,1,1.5,1.332,3.714,3.714,0,0,1,.523,1.965,3.266,3.266,0,0,1-1.145,2.637A4.767,4.767,0,0,1,16-4.008Zm0-1.9h2.094a2.059,2.059,0,0,0,1.418-.437,1.591,1.591,0,0,0,.488-1.25,1.876,1.876,0,0,0-.492-1.352,1.839,1.839,0,0,0-1.359-.531H13.941Z" transform="translate(891.667 1185.371)" fill="#fff"/>
    <path id="Trazado_104657" data-name="Trazado 104657" d="M0,0H151.223V42.618H0Z" transform="translate(816.8 960)" fill="#ff0062"/>
    <path id="Trazado_104659" data-name="Trazado 104659" d="M-40.649-4.026a4.277,4.277,0,0,1-1.44,3.071A5.058,5.058,0,0,1-45.513.166,4.548,4.548,0,0,1-49.17-1.4a6.416,6.416,0,0,1-1.332-4.3v-.739A7.245,7.245,0,0,1-49.888-9.5a4.6,4.6,0,0,1,1.756-2.038,4.918,4.918,0,0,1,2.652-.71,4.927,4.927,0,0,1,3.37,1.121,4.6,4.6,0,0,1,1.478,3.146h-2.49a2.524,2.524,0,0,0-.652-1.7,2.413,2.413,0,0,0-1.706-.527,2.116,2.116,0,0,0-1.864.892,5,5,0,0,0-.635,2.768v.913a5.352,5.352,0,0,0,.594,2.864,2.077,2.077,0,0,0,1.872.9,2.458,2.458,0,0,0,1.722-.527,2.381,2.381,0,0,0,.652-1.631ZM-36.64,0h-2.407V-12.75h2.407Zm4.507,0H-34.54V-8.981h2.407Zm-2.548-11.306a1.181,1.181,0,0,1,.361-.888,1.356,1.356,0,0,1,.984-.349,1.36,1.36,0,0,1,.979.349,1.175,1.175,0,0,1,.365.888,1.178,1.178,0,0,1-.369.9,1.363,1.363,0,0,1-.975.349,1.363,1.363,0,0,1-.975-.349A1.178,1.178,0,0,1-34.681-11.306ZM-26.023.166A4.409,4.409,0,0,1-29.24-1.046,4.308,4.308,0,0,1-30.48-4.275v-.232a5.426,5.426,0,0,1,.523-2.42,3.838,3.838,0,0,1,1.482-1.644,4.159,4.159,0,0,1,2.187-.577,3.727,3.727,0,0,1,2.9,1.162,4.722,4.722,0,0,1,1.058,3.3v.979h-5.719a2.229,2.229,0,0,0,.7,1.411,2.12,2.12,0,0,0,1.482.531,2.589,2.589,0,0,0,2.167-1l1.179,1.32A3.6,3.6,0,0,1-23.981-.261,4.793,4.793,0,0,1-26.023.166ZM-26.3-7.213a1.5,1.5,0,0,0-1.158.484,2.5,2.5,0,0,0-.569,1.384h3.337v-.192a1.786,1.786,0,0,0-.432-1.238A1.547,1.547,0,0,0-26.3-7.213Zm7.537-1.768.075,1.038a3.136,3.136,0,0,1,2.582-1.2,2.606,2.606,0,0,1,2.125.838A3.912,3.912,0,0,1-13.265-5.8V0h-2.4V-5.757A1.562,1.562,0,0,0-16-6.868a1.484,1.484,0,0,0-1.1-.345,1.65,1.65,0,0,0-1.519.865V0h-2.4V-8.981Zm10.185-2.208v2.208h1.536v1.76H-8.575v4.482a1.07,1.07,0,0,0,.191.714.959.959,0,0,0,.73.216,3.826,3.826,0,0,0,.706-.058V-.05A4.939,4.939,0,0,1-8.4.166a2.29,2.29,0,0,1-2.573-2.548V-7.222h-1.312v-1.76h1.312v-2.208ZM-1.569.166A4.409,4.409,0,0,1-4.785-1.046,4.308,4.308,0,0,1-6.026-4.275v-.232A5.426,5.426,0,0,1-5.5-6.927,3.838,3.838,0,0,1-4.022-8.571a4.159,4.159,0,0,1,2.187-.577,3.727,3.727,0,0,1,2.9,1.162,4.722,4.722,0,0,1,1.058,3.3v.979H-3.594a2.229,2.229,0,0,0,.7,1.411,2.12,2.12,0,0,0,1.482.531,2.589,2.589,0,0,0,2.167-1l1.179,1.32A3.6,3.6,0,0,1,.473-.261,4.793,4.793,0,0,1-1.569.166Zm-.274-7.379A1.5,1.5,0,0,0-3-6.73a2.5,2.5,0,0,0-.569,1.384H-.232v-.192A1.786,1.786,0,0,0-.664-6.776,1.547,1.547,0,0,0-1.843-7.213ZM14.145-3.171a1.278,1.278,0,0,0-.5-1.083,6.533,6.533,0,0,0-1.793-.8A12.71,12.71,0,0,1,9.8-5.877a3.35,3.35,0,0,1-2.059-3A2.919,2.919,0,0,1,8.3-10.621a3.6,3.6,0,0,1,1.585-1.2,5.967,5.967,0,0,1,2.32-.432,5.432,5.432,0,0,1,2.308.469,3.674,3.674,0,0,1,1.573,1.324,3.464,3.464,0,0,1,.56,1.942h-2.49a1.63,1.63,0,0,0-.523-1.291,2.15,2.15,0,0,0-1.469-.461,2.3,2.3,0,0,0-1.419.386,1.217,1.217,0,0,0-.506,1.017,1.166,1.166,0,0,0,.594.988,6.705,6.705,0,0,0,1.747.747,7.55,7.55,0,0,1,3.1,1.585,3.157,3.157,0,0,1,.971,2.357A2.909,2.909,0,0,1,15.456-.726a5.2,5.2,0,0,1-3.2.892,6.171,6.171,0,0,1-2.54-.51,4.019,4.019,0,0,1-1.747-1.4,3.582,3.582,0,0,1-.6-2.059h2.5q0,2,2.391,2a2.326,2.326,0,0,0,1.386-.361A1.175,1.175,0,0,0,14.145-3.171Zm14.111-2.6a7.3,7.3,0,0,1-.631,3.129A4.751,4.751,0,0,1,25.82-.564a4.994,4.994,0,0,1-2.694.73,5.028,5.028,0,0,1-2.681-.722,4.8,4.8,0,0,1-1.826-2.063A7.087,7.087,0,0,1,17.963-5.7v-.6a7.258,7.258,0,0,1,.643-3.142,4.79,4.79,0,0,1,1.818-2.083,5,5,0,0,1,2.685-.726,5,5,0,0,1,2.685.726,4.79,4.79,0,0,1,1.818,2.083,7.237,7.237,0,0,1,.643,3.134Zm-2.523-.548a5.086,5.086,0,0,0-.681-2.889,2.218,2.218,0,0,0-1.942-.988,2.219,2.219,0,0,0-1.934.975,5.028,5.028,0,0,0-.689,2.86v.589A5.15,5.15,0,0,0,21.167-2.9a2.212,2.212,0,0,0,1.959,1.021,2.192,2.192,0,0,0,1.926-.984,5.12,5.12,0,0,0,.681-2.868ZM36.714-2.49H32.348L31.518,0H28.87l4.5-12.086h2.308L40.2,0H37.553ZM33.021-4.507h3.021L34.523-9.031Zm10.8.249V0H41.33V-12.086h4.715a5.455,5.455,0,0,1,2.395.5,3.67,3.67,0,0,1,1.59,1.415,3.946,3.946,0,0,1,.556,2.088,3.47,3.47,0,0,1-1.216,2.8A5.065,5.065,0,0,1,46-4.258Zm0-2.017h2.225a2.187,2.187,0,0,0,1.507-.465,1.691,1.691,0,0,0,.519-1.328A1.994,1.994,0,0,0,47.547-9.5a1.953,1.953,0,0,0-1.444-.564H43.82Z" transform="translate(891.345 987.236)" fill="#fff"/>
    <path id="Trazado_104654" data-name="Trazado 104654" d="M6.66,7.519a2.877,2.877,0,0,1-.916,1.915,3,3,0,0,1-2.049.674,2.756,2.756,0,0,1-2.221-.994A4,4,0,0,1,.639,6.455V5.7a4.456,4.456,0,0,1,.389-1.917,2.909,2.909,0,0,1,1.1-1.27,3.073,3.073,0,0,1,1.654-.443,2.826,2.826,0,0,1,2,.7A2.912,2.912,0,0,1,6.66,4.693H5.624a2.247,2.247,0,0,0-.583-1.358,1.763,1.763,0,0,0-1.254-.42,1.845,1.845,0,0,0-1.55.731,3.356,3.356,0,0,0-.561,2.08v.758a3.45,3.45,0,0,0,.532,2.027A1.718,1.718,0,0,0,3.7,9.264a1.984,1.984,0,0,0,1.319-.389,2.161,2.161,0,0,0,.61-1.356Zm.988-.478A3.433,3.433,0,0,1,7.984,5.5a2.5,2.5,0,0,1,.935-1.053,2.544,2.544,0,0,1,1.367-.371,2.451,2.451,0,0,1,1.92.822,3.162,3.162,0,0,1,.733,2.186v.07a3.462,3.462,0,0,1-.325,1.523,2.467,2.467,0,0,1-.929,1.05,2.573,2.573,0,0,1-1.388.376,2.445,2.445,0,0,1-1.915-.822A3.146,3.146,0,0,1,7.648,7.11Zm1,.118A2.486,2.486,0,0,0,9.1,8.711,1.52,1.52,0,0,0,11.5,8.7a2.719,2.719,0,0,0,.446-1.662,2.482,2.482,0,0,0-.454-1.55A1.443,1.443,0,0,0,10.286,4.9,1.427,1.427,0,0,0,9.1,5.483,2.7,2.7,0,0,0,8.647,7.159Zm6.478-2.97.032.73a2.118,2.118,0,0,1,1.74-.838q1.842,0,1.858,2.079V10h-.994V6.154a1.338,1.338,0,0,0-.287-.929,1.152,1.152,0,0,0-.878-.3,1.434,1.434,0,0,0-.849.258,1.751,1.751,0,0,0-.569.677V10h-.994V4.188Zm7.541,5.919a2.539,2.539,0,0,1-1.923-.776A2.881,2.881,0,0,1,20,7.255V7.073a3.487,3.487,0,0,1,.33-1.544,2.577,2.577,0,0,1,.924-1.063,2.323,2.323,0,0,1,1.286-.384,2.177,2.177,0,0,1,1.762.747,3.232,3.232,0,0,1,.628,2.138v.414H21a2.066,2.066,0,0,0,.5,1.388A1.579,1.579,0,0,0,22.72,9.3a1.731,1.731,0,0,0,.892-.215,2.24,2.24,0,0,0,.639-.569l.607.473A2.44,2.44,0,0,1,22.666,10.107ZM22.542,4.9a1.325,1.325,0,0,0-1.01.438,2.128,2.128,0,0,0-.5,1.227h2.911V6.487a1.893,1.893,0,0,0-.408-1.174A1.248,1.248,0,0,0,22.542,4.9Zm5.871,4.4a1.431,1.431,0,0,0,.929-.322,1.134,1.134,0,0,0,.44-.806h.94a1.8,1.8,0,0,1-.344.951,2.264,2.264,0,0,1-.846.72,2.441,2.441,0,0,1-1.12.269,2.394,2.394,0,0,1-1.888-.792,3.155,3.155,0,0,1-.7-2.167V6.981a3.5,3.5,0,0,1,.312-1.509,2.373,2.373,0,0,1,.894-1.026,2.54,2.54,0,0,1,1.378-.365,2.331,2.331,0,0,1,1.625.585,2.092,2.092,0,0,1,.69,1.52h-.94a1.369,1.369,0,0,0-.427-.927,1.328,1.328,0,0,0-.948-.363,1.391,1.391,0,0,0-1.174.545,2.56,2.56,0,0,0-.416,1.576v.188a2.509,2.509,0,0,0,.414,1.547A1.4,1.4,0,0,0,28.413,9.3Zm4.775-6.515V4.188h1.085v.768H33.188V8.565a.807.807,0,0,0,.145.524.61.61,0,0,0,.494.175A2.406,2.406,0,0,0,34.3,9.2V10a2.9,2.9,0,0,1-.763.107,1.237,1.237,0,0,1-1-.4,1.731,1.731,0,0,1-.338-1.144v-3.6H31.136V4.188h1.058V2.781Zm1.875,4.259A3.433,3.433,0,0,1,35.4,5.5a2.5,2.5,0,0,1,.935-1.053A2.544,2.544,0,0,1,37.7,4.081a2.451,2.451,0,0,1,1.92.822,3.162,3.162,0,0,1,.733,2.186v.07a3.463,3.463,0,0,1-.325,1.523,2.467,2.467,0,0,1-.929,1.05,2.573,2.573,0,0,1-1.388.376A2.445,2.445,0,0,1,35.8,9.286a3.146,3.146,0,0,1-.733-2.175Zm1,.118a2.486,2.486,0,0,0,.448,1.552,1.52,1.52,0,0,0,2.4-.008,2.719,2.719,0,0,0,.446-1.662,2.482,2.482,0,0,0-.454-1.55A1.443,1.443,0,0,0,37.7,4.9a1.427,1.427,0,0,0-1.187.585A2.7,2.7,0,0,0,36.062,7.159ZM44.408,5.08a2.978,2.978,0,0,0-.489-.038,1.309,1.309,0,0,0-1.327.833V10H41.6V4.188h.967l.016.671a1.547,1.547,0,0,1,1.386-.779,1.015,1.015,0,0,1,.44.075Zm6.1,1.434a4.849,4.849,0,0,1-1.931-.937,1.791,1.791,0,0,1-.6-1.372,1.892,1.892,0,0,1,.739-1.528,2.935,2.935,0,0,1,1.92-.6,3.2,3.2,0,0,1,1.437.312,2.362,2.362,0,0,1,.978.859,2.2,2.2,0,0,1,.346,1.2H52.352A1.43,1.43,0,0,0,51.9,3.322a1.835,1.835,0,0,0-1.273-.407,1.878,1.878,0,0,0-1.19.336,1.122,1.122,0,0,0-.427.934,1.009,1.009,0,0,0,.406.81A3.978,3.978,0,0,0,50.8,5.6a6.4,6.4,0,0,1,1.525.6,2.315,2.315,0,0,1,.816.771A1.967,1.967,0,0,1,53.4,8.013a1.827,1.827,0,0,1-.741,1.523,3.16,3.16,0,0,1-1.982.572,3.676,3.676,0,0,1-1.5-.309A2.531,2.531,0,0,1,48.1,8.953a2.064,2.064,0,0,1-.379-1.219h1.037a1.347,1.347,0,0,0,.524,1.12,2.2,2.2,0,0,0,1.4.411,2.027,2.027,0,0,0,1.251-.333,1.082,1.082,0,0,0,.435-.908,1.062,1.062,0,0,0-.4-.889A4.644,4.644,0,0,0,50.5,6.514Zm10.237-.172a4.838,4.838,0,0,1-.387,2.006,2.929,2.929,0,0,1-1.1,1.308,3.024,3.024,0,0,1-4.4-1.3,4.642,4.642,0,0,1-.406-1.947V5.848a4.78,4.78,0,0,1,.392-1.993,2.9,2.9,0,0,1,2.75-1.783,3.032,3.032,0,0,1,1.657.454,2.924,2.924,0,0,1,1.1,1.316,4.861,4.861,0,0,1,.387,2.006Zm-1.026-.5A3.506,3.506,0,0,0,59.157,3.7a1.842,1.842,0,0,0-1.563-.744,1.823,1.823,0,0,0-1.539.744,3.434,3.434,0,0,0-.577,2.065v.575a3.511,3.511,0,0,0,.567,2.119,1.986,1.986,0,0,0,3.107.043,3.492,3.492,0,0,0,.564-2.087Zm6.778,2.116H63.218L62.482,10H61.418L64.4,2.18h.9L68.3,10H67.241ZM63.529,7.11h2.659L64.856,3.453Zm6.854-.172V10H69.352V2.18h2.884a2.9,2.9,0,0,1,2.011.655,2.222,2.222,0,0,1,.728,1.735,2.192,2.192,0,0,1-.712,1.754,3.027,3.027,0,0,1-2.038.615Zm0-.843h1.853a1.853,1.853,0,0,0,1.268-.39,1.426,1.426,0,0,0,.44-1.127,1.474,1.474,0,0,0-.44-1.119,1.736,1.736,0,0,0-1.208-.436H70.383Z" transform="translate(923.365 1048.152)"/>
    <path id="Trazado_104655" data-name="Trazado 104655" d="M72.389,7.519a2.877,2.877,0,0,1-.916,1.915,3,3,0,0,1-2.049.674A2.756,2.756,0,0,1,67.2,9.114a4,4,0,0,1-.835-2.659V5.7a4.456,4.456,0,0,1,.389-1.917,2.909,2.909,0,0,1,1.1-1.27,3.073,3.073,0,0,1,1.654-.443,2.826,2.826,0,0,1,2,.7,2.912,2.912,0,0,1,.875,1.926H71.352a2.247,2.247,0,0,0-.583-1.358,1.763,1.763,0,0,0-1.254-.42,1.845,1.845,0,0,0-1.55.731,3.356,3.356,0,0,0-.561,2.08v.758a3.45,3.45,0,0,0,.532,2.027,1.718,1.718,0,0,0,1.488.753,1.984,1.984,0,0,0,1.319-.389,2.161,2.161,0,0,0,.61-1.356Zm.988-.478A3.433,3.433,0,0,1,73.713,5.5a2.5,2.5,0,0,1,.935-1.053,2.544,2.544,0,0,1,1.367-.371,2.451,2.451,0,0,1,1.92.822,3.162,3.162,0,0,1,.733,2.186v.07a3.462,3.462,0,0,1-.325,1.523,2.467,2.467,0,0,1-.929,1.05,2.573,2.573,0,0,1-1.388.376,2.445,2.445,0,0,1-1.915-.822,3.146,3.146,0,0,1-.733-2.175Zm1,.118a2.486,2.486,0,0,0,.448,1.552,1.52,1.52,0,0,0,2.4-.008,2.719,2.719,0,0,0,.446-1.662,2.482,2.482,0,0,0-.454-1.55A1.443,1.443,0,0,0,76.014,4.9a1.427,1.427,0,0,0-1.187.585A2.7,2.7,0,0,0,74.376,7.159Zm6.478-2.97.032.73a2.118,2.118,0,0,1,1.74-.838q1.842,0,1.858,2.079V10h-.994V6.154a1.338,1.338,0,0,0-.287-.929,1.152,1.152,0,0,0-.878-.3,1.434,1.434,0,0,0-.849.258,1.751,1.751,0,0,0-.569.677V10h-.994V4.188Zm7.541,5.919a2.539,2.539,0,0,1-1.923-.776,2.881,2.881,0,0,1-.741-2.076V7.073a3.487,3.487,0,0,1,.33-1.544,2.577,2.577,0,0,1,.924-1.063,2.323,2.323,0,0,1,1.286-.384,2.177,2.177,0,0,1,1.762.747,3.232,3.232,0,0,1,.628,2.138v.414H86.724a2.066,2.066,0,0,0,.5,1.388,1.579,1.579,0,0,0,1.222.529,1.731,1.731,0,0,0,.892-.215,2.24,2.24,0,0,0,.639-.569l.607.473A2.44,2.44,0,0,1,88.395,10.107ZM88.271,4.9a1.325,1.325,0,0,0-1.01.438,2.128,2.128,0,0,0-.5,1.227h2.911V6.487a1.893,1.893,0,0,0-.408-1.174A1.248,1.248,0,0,0,88.271,4.9Zm5.871,4.4a1.431,1.431,0,0,0,.929-.322,1.134,1.134,0,0,0,.44-.806h.94a1.8,1.8,0,0,1-.344.951,2.264,2.264,0,0,1-.846.72,2.441,2.441,0,0,1-1.12.269,2.394,2.394,0,0,1-1.888-.792,3.155,3.155,0,0,1-.7-2.167V6.981a3.5,3.5,0,0,1,.312-1.509,2.373,2.373,0,0,1,.894-1.026,2.54,2.54,0,0,1,1.378-.365,2.331,2.331,0,0,1,1.625.585,2.092,2.092,0,0,1,.69,1.52h-.94a1.369,1.369,0,0,0-.427-.927,1.328,1.328,0,0,0-.948-.363,1.391,1.391,0,0,0-1.174.545,2.56,2.56,0,0,0-.416,1.576v.188a2.509,2.509,0,0,0,.414,1.547A1.4,1.4,0,0,0,94.142,9.3Zm4.775-6.515V4.188H100v.768H98.917V8.565a.807.807,0,0,0,.145.524.61.61,0,0,0,.494.175,2.406,2.406,0,0,0,.473-.064V10a2.9,2.9,0,0,1-.763.107,1.237,1.237,0,0,1-1-.4,1.731,1.731,0,0,1-.338-1.144v-3.6H96.865V4.188h1.058V2.781Zm1.875,4.259a3.433,3.433,0,0,1,.336-1.536,2.5,2.5,0,0,1,.935-1.053,2.544,2.544,0,0,1,1.367-.371,2.451,2.451,0,0,1,1.92.822,3.162,3.162,0,0,1,.733,2.186v.07a3.462,3.462,0,0,1-.325,1.523,2.467,2.467,0,0,1-.929,1.05,2.573,2.573,0,0,1-1.388.376,2.445,2.445,0,0,1-1.915-.822,3.146,3.146,0,0,1-.733-2.175Zm1,.118a2.486,2.486,0,0,0,.448,1.552,1.52,1.52,0,0,0,2.4-.008,2.719,2.719,0,0,0,.446-1.662,2.482,2.482,0,0,0-.454-1.55,1.443,1.443,0,0,0-1.206-.594,1.427,1.427,0,0,0-1.187.585A2.7,2.7,0,0,0,101.79,7.159Zm8.347-2.079a2.978,2.978,0,0,0-.489-.038,1.309,1.309,0,0,0-1.327.833V10h-.994V4.188h.967l.016.671a1.547,1.547,0,0,1,1.386-.779,1.015,1.015,0,0,1,.44.075Zm6.66,1.756H114.96V10h-1.037V2.18h2.589a3.064,3.064,0,0,1,2.033.6,2.164,2.164,0,0,1,.712,1.751,2.105,2.105,0,0,1-.395,1.273,2.357,2.357,0,0,1-1.1.811L119.6,9.936V10h-1.106Zm-1.837-.843h1.584a1.787,1.787,0,0,0,1.222-.4,1.346,1.346,0,0,0,.454-1.065,1.418,1.418,0,0,0-.432-1.114,1.831,1.831,0,0,0-1.249-.393H114.96Zm10.162.392h-3.389V9.157h3.937V10H120.7V2.18h4.915v.843h-3.883V5.542h3.389Zm4.136.129a4.849,4.849,0,0,1-1.931-.937,1.791,1.791,0,0,1-.6-1.372,1.892,1.892,0,0,1,.739-1.528,2.935,2.935,0,0,1,1.92-.6,3.2,3.2,0,0,1,1.437.312,2.362,2.362,0,0,1,.978.859,2.2,2.2,0,0,1,.346,1.2h-1.037a1.43,1.43,0,0,0-.451-1.118,1.835,1.835,0,0,0-1.273-.407,1.878,1.878,0,0,0-1.19.336,1.122,1.122,0,0,0-.427.934,1.009,1.009,0,0,0,.406.81,3.977,3.977,0,0,0,1.38.605,6.4,6.4,0,0,1,1.525.6,2.315,2.315,0,0,1,.816.771,1.967,1.967,0,0,1,.266,1.037,1.827,1.827,0,0,1-.741,1.523,3.16,3.16,0,0,1-1.982.572,3.676,3.676,0,0,1-1.5-.309,2.531,2.531,0,0,1-1.077-.846,2.064,2.064,0,0,1-.379-1.219h1.037a1.347,1.347,0,0,0,.524,1.12,2.2,2.2,0,0,0,1.4.411,2.027,2.027,0,0,0,1.251-.333,1.082,1.082,0,0,0,.435-.908,1.062,1.062,0,0,0-.4-.889A4.644,4.644,0,0,0,129.258,6.514Zm9.625-3.491h-2.514V10h-1.026V3.023h-2.508V2.18h6.048Z" transform="translate(538 1048.152)"/>
    <path id="Trazado_104647" data-name="Trazado 104647" d="M174.265,7.137h-1.284V10H171.37V2.18h2.906a3.285,3.285,0,0,1,2.138.618,2.132,2.132,0,0,1,.752,1.746,2.406,2.406,0,0,1-.346,1.335,2.363,2.363,0,0,1-1.05.851l1.692,3.2V10h-1.729Zm-1.284-1.305h1.3a1.331,1.331,0,0,0,.94-.309,1.1,1.1,0,0,0,.333-.851,1.182,1.182,0,0,0-.314-.87,1.306,1.306,0,0,0-.964-.317h-1.294Zm7.981,4.275a2.853,2.853,0,0,1-2.081-.784,2.787,2.787,0,0,1-.8-2.089v-.15a3.511,3.511,0,0,1,.338-1.566,2.483,2.483,0,0,1,.959-1.063,2.691,2.691,0,0,1,1.415-.373,2.412,2.412,0,0,1,1.877.752,3.056,3.056,0,0,1,.685,2.132V7.6h-3.7a1.442,1.442,0,0,0,.454.913,1.372,1.372,0,0,0,.959.344,1.675,1.675,0,0,0,1.4-.65l.763.854a2.33,2.33,0,0,1-.945.771A3.1,3.1,0,0,1,180.963,10.107Zm-.177-4.775a.97.97,0,0,0-.749.313,1.62,1.62,0,0,0-.368.9h2.159V6.417a1.156,1.156,0,0,0-.279-.8A1,1,0,0,0,180.786,5.333Zm5.865,3.523a1.018,1.018,0,0,0,.7-.236.828.828,0,0,0,.279-.628h1.456a1.991,1.991,0,0,1-.322,1.082,2.126,2.126,0,0,1-.867.763,2.715,2.715,0,0,1-1.217.271,2.523,2.523,0,0,1-1.966-.792,3.135,3.135,0,0,1-.72-2.189v-.1a3.1,3.1,0,0,1,.714-2.143,2.494,2.494,0,0,1,1.96-.8,2.444,2.444,0,0,1,1.748.62,2.2,2.2,0,0,1,.669,1.652h-1.456a1.067,1.067,0,0,0-.279-.737,1.038,1.038,0,0,0-1.528.112,2.291,2.291,0,0,0-.277,1.283v.161a2.32,2.32,0,0,0,.274,1.291A.947.947,0,0,0,186.651,8.856Zm6.8.553a1.947,1.947,0,0,1-1.59.7,1.836,1.836,0,0,1-1.426-.537,2.293,2.293,0,0,1-.5-1.574V4.188h1.552V7.947q0,.909.827.909a1.121,1.121,0,0,0,1.085-.549V4.188h1.558V10h-1.461Zm5.94-3.765a4.217,4.217,0,0,0-.559-.043,1.137,1.137,0,0,0-1.155.6V10h-1.552V4.188h1.466l.043.693a1.438,1.438,0,0,1,1.294-.8,1.626,1.626,0,0,1,.483.07Zm3.894,2.75A.5.5,0,0,0,203,7.946a3.2,3.2,0,0,0-.905-.293q-2.073-.435-2.073-1.762a1.6,1.6,0,0,1,.642-1.292,2.589,2.589,0,0,1,1.678-.518,2.787,2.787,0,0,1,1.77.521,1.642,1.642,0,0,1,.663,1.354h-1.552a.751.751,0,0,0-.215-.551.909.909,0,0,0-.671-.218.929.929,0,0,0-.607.177.56.56,0,0,0-.215.451.478.478,0,0,0,.244.416,2.514,2.514,0,0,0,.824.274,6.734,6.734,0,0,1,.978.26,1.606,1.606,0,0,1,1.23,1.563,1.516,1.516,0,0,1-.682,1.286,2.943,2.943,0,0,1-1.762.491,3.073,3.073,0,0,1-1.3-.26,2.176,2.176,0,0,1-.889-.714,1.66,1.66,0,0,1-.322-.98h1.472a.81.81,0,0,0,.306.634,1.214,1.214,0,0,0,.763.22,1.124,1.124,0,0,0,.674-.169A.526.526,0,0,0,203.285,8.394Zm2.267-1.354a3.447,3.447,0,0,1,.333-1.542,2.438,2.438,0,0,1,.959-1.047,2.8,2.8,0,0,1,1.453-.371,2.646,2.646,0,0,1,1.92.72,2.889,2.889,0,0,1,.83,1.955l.011.4a3.037,3.037,0,0,1-.747,2.146,2.894,2.894,0,0,1-4.01,0,3.091,3.091,0,0,1-.749-2.191Zm1.552.11a2.172,2.172,0,0,0,.312,1.267,1.119,1.119,0,0,0,1.772.005,2.377,2.377,0,0,0,.317-1.385,2.151,2.151,0,0,0-.317-1.259,1.03,1.03,0,0,0-.892-.446,1.013,1.013,0,0,0-.881.444A2.417,2.417,0,0,0,207.1,7.151Z" transform="translate(608.09 1208.357)" fill="#3366c2"/>
    <path id="Trazado_104648" data-name="Trazado 104648" d="M0,0H384.842V38.908H0Z" transform="translate(608.09 1253.335)" fill="#d0e6f7" stroke="#fff" stroke-width="0.662"/>
    <path id="Trazado_104649" data-name="Trazado 104649" d="M175.715,7.948a.827.827,0,0,0-.322-.7,4.227,4.227,0,0,0-1.16-.516,8.224,8.224,0,0,1-1.327-.534,2.168,2.168,0,0,1-1.332-1.939,1.888,1.888,0,0,1,.357-1.131,2.33,2.33,0,0,1,1.026-.776,3.861,3.861,0,0,1,1.5-.279,3.515,3.515,0,0,1,1.493.3,2.378,2.378,0,0,1,1.018.857,2.242,2.242,0,0,1,.363,1.257h-1.611a1.055,1.055,0,0,0-.338-.835,1.391,1.391,0,0,0-.951-.3,1.486,1.486,0,0,0-.918.25.788.788,0,0,0-.328.658.754.754,0,0,0,.384.639,4.339,4.339,0,0,0,1.131.483,4.885,4.885,0,0,1,2,1.026,2.043,2.043,0,0,1,.628,1.525,1.882,1.882,0,0,1-.768,1.593,3.362,3.362,0,0,1-2.068.577,3.993,3.993,0,0,1-1.644-.33,2.6,2.6,0,0,1-1.131-.905,2.318,2.318,0,0,1-.389-1.332h1.617q0,1.294,1.547,1.294a1.5,1.5,0,0,0,.9-.234A.76.76,0,0,0,175.715,7.948ZM181,10.107a2.853,2.853,0,0,1-2.081-.784,2.787,2.787,0,0,1-.8-2.089v-.15a3.511,3.511,0,0,1,.338-1.566,2.483,2.483,0,0,1,.959-1.063,2.691,2.691,0,0,1,1.415-.373,2.412,2.412,0,0,1,1.877.752,3.056,3.056,0,0,1,.685,2.132V7.6h-3.7a1.442,1.442,0,0,0,.454.913,1.372,1.372,0,0,0,.959.344,1.675,1.675,0,0,0,1.4-.65l.763.854a2.33,2.33,0,0,1-.945.771A3.1,3.1,0,0,1,181,10.107Zm-.177-4.775a.97.97,0,0,0-.749.313,1.62,1.62,0,0,0-.368.9h2.159V6.417a1.156,1.156,0,0,0-.279-.8A1,1,0,0,0,180.818,5.333Zm6.714.312a4.217,4.217,0,0,0-.559-.043,1.137,1.137,0,0,0-1.155.6V10h-1.552V4.188h1.466l.043.693a1.438,1.438,0,0,1,1.294-.8,1.626,1.626,0,0,1,.483.07ZM190.55,8.1l1.08-3.916h1.622L191.292,10h-1.482l-1.96-5.812h1.622Zm5.022,1.9h-1.558V4.188h1.558Zm-1.649-7.315a.764.764,0,0,1,.234-.575,1.007,1.007,0,0,1,1.27,0,.76.76,0,0,1,.236.575.762.762,0,0,1-.239.58,1,1,0,0,1-1.262,0A.762.762,0,0,1,193.924,2.685Zm5.344,6.171a1.018,1.018,0,0,0,.7-.236.828.828,0,0,0,.279-.628H201.7a1.991,1.991,0,0,1-.322,1.082,2.126,2.126,0,0,1-.867.763,2.715,2.715,0,0,1-1.217.271,2.523,2.523,0,0,1-1.966-.792,3.135,3.135,0,0,1-.72-2.189v-.1a3.1,3.1,0,0,1,.714-2.143,2.494,2.494,0,0,1,1.96-.8,2.444,2.444,0,0,1,1.748.62,2.2,2.2,0,0,1,.669,1.652h-1.456a1.067,1.067,0,0,0-.279-.737,1.038,1.038,0,0,0-1.528.112,2.291,2.291,0,0,0-.277,1.283v.161a2.32,2.32,0,0,0,.274,1.291A.947.947,0,0,0,199.268,8.856ZM204.225,10h-1.558V4.188h1.558Zm-1.649-7.315a.764.764,0,0,1,.234-.575,1.007,1.007,0,0,1,1.27,0,.76.76,0,0,1,.236.575.762.762,0,0,1-.239.58,1,1,0,0,1-1.262,0A.762.762,0,0,1,202.576,2.685Zm2.686,4.356a3.447,3.447,0,0,1,.333-1.542,2.438,2.438,0,0,1,.959-1.047,2.8,2.8,0,0,1,1.453-.371,2.646,2.646,0,0,1,1.92.72,2.889,2.889,0,0,1,.83,1.955l.011.4a3.037,3.037,0,0,1-.747,2.146,2.894,2.894,0,0,1-4.01,0,3.091,3.091,0,0,1-.749-2.191Zm1.552.11a2.172,2.172,0,0,0,.312,1.267,1.119,1.119,0,0,0,1.772.005,2.377,2.377,0,0,0,.317-1.385,2.151,2.151,0,0,0-.317-1.259,1.03,1.03,0,0,0-.892-.446,1.013,1.013,0,0,0-.881.444A2.417,2.417,0,0,0,206.814,7.151Z" transform="translate(608.09 1263.652)" fill="#3366c2"/>
    <path id="Trazado_104641" data-name="Trazado 104641" d="M0,0H176.132V38.908H0Z" transform="translate(608.09 1310.307)" fill="#d0e6f7" stroke="#fff" stroke-width="0.662"/>
    <path id="Trazado_104642" data-name="Trazado 104642" d="M0,0H176.132V38.908H0Z" transform="translate(816.8 1310.307)" fill="#d0e6f7" stroke="#fff" stroke-width="0.662"/>
    <path id="Trazado_104643" data-name="Trazado 104643" d="M63.222,7.137H61.938V10H60.327V2.18h2.906a3.285,3.285,0,0,1,2.138.618,2.132,2.132,0,0,1,.752,1.746,2.406,2.406,0,0,1-.346,1.335,2.363,2.363,0,0,1-1.05.851l1.692,3.2V10H64.688ZM61.938,5.832h1.3a1.331,1.331,0,0,0,.94-.309,1.1,1.1,0,0,0,.333-.851A1.182,1.182,0,0,0,64.2,3.8a1.306,1.306,0,0,0-.964-.317H61.938Zm7.981,4.275a2.853,2.853,0,0,1-2.081-.784,2.787,2.787,0,0,1-.8-2.089v-.15a3.511,3.511,0,0,1,.338-1.566,2.483,2.483,0,0,1,.959-1.063,2.691,2.691,0,0,1,1.415-.373,2.412,2.412,0,0,1,1.877.752,3.056,3.056,0,0,1,.685,2.132V7.6h-3.7a1.442,1.442,0,0,0,.454.913,1.372,1.372,0,0,0,.959.344,1.675,1.675,0,0,0,1.4-.65l.763.854a2.33,2.33,0,0,1-.945.771A3.1,3.1,0,0,1,69.92,10.107Zm-.177-4.775a.97.97,0,0,0-.749.313,1.62,1.62,0,0,0-.368.9h2.159V6.417a1.156,1.156,0,0,0-.279-.8A1,1,0,0,0,69.743,5.333Zm8.68,1.815a3.485,3.485,0,0,1-.61,2.151,1.955,1.955,0,0,1-1.646.808A1.811,1.811,0,0,1,74.743,9.5v2.739H73.191V4.188H74.63l.054.569a1.824,1.824,0,0,1,1.472-.677,1.968,1.968,0,0,1,1.67.795,3.58,3.58,0,0,1,.6,2.191ZM76.87,7.03a2.3,2.3,0,0,0-.287-1.255.935.935,0,0,0-.835-.442,1.016,1.016,0,0,0-1,.56V8.279a1.033,1.033,0,0,0,1.015.576Q76.87,8.856,76.87,7.03Zm2.272.011A3.447,3.447,0,0,1,79.475,5.5a2.438,2.438,0,0,1,.959-1.047,2.8,2.8,0,0,1,1.453-.371,2.646,2.646,0,0,1,1.92.72,2.889,2.889,0,0,1,.83,1.955l.011.4A3.038,3.038,0,0,1,83.9,9.3a2.894,2.894,0,0,1-4.01,0,3.091,3.091,0,0,1-.749-2.191Zm1.552.11a2.172,2.172,0,0,0,.312,1.267,1.119,1.119,0,0,0,1.772.005A2.377,2.377,0,0,0,83.1,7.038a2.151,2.151,0,0,0-.317-1.259,1.03,1.03,0,0,0-.892-.446,1.013,1.013,0,0,0-.881.444A2.417,2.417,0,0,0,80.694,7.151Zm8.057,1.243a.5.5,0,0,0-.282-.448,3.2,3.2,0,0,0-.905-.293q-2.073-.435-2.073-1.762A1.6,1.6,0,0,1,86.132,4.6a2.589,2.589,0,0,1,1.678-.518,2.787,2.787,0,0,1,1.77.521,1.642,1.642,0,0,1,.663,1.354H88.692a.751.751,0,0,0-.215-.551.909.909,0,0,0-.671-.218.929.929,0,0,0-.607.177.56.56,0,0,0-.215.451.478.478,0,0,0,.244.416,2.514,2.514,0,0,0,.824.274,6.734,6.734,0,0,1,.978.26A1.606,1.606,0,0,1,90.26,8.33a1.516,1.516,0,0,1-.682,1.286,2.943,2.943,0,0,1-1.762.491,3.073,3.073,0,0,1-1.3-.26,2.176,2.176,0,0,1-.889-.714,1.66,1.66,0,0,1-.322-.98H86.78a.81.81,0,0,0,.306.634,1.214,1.214,0,0,0,.763.22,1.124,1.124,0,0,0,.674-.169A.526.526,0,0,0,88.751,8.394ZM92.9,10H91.34V4.188H92.9ZM91.248,2.685a.764.764,0,0,1,.234-.575,1.007,1.007,0,0,1,1.27,0,.76.76,0,0,1,.236.575.762.762,0,0,1-.239.58,1,1,0,0,1-1.262,0A.762.762,0,0,1,91.248,2.685Zm4.786.075V4.188h.994V5.327h-.994v2.9a.693.693,0,0,0,.124.462.62.62,0,0,0,.473.14,2.475,2.475,0,0,0,.457-.038V9.968a3.2,3.2,0,0,1-.94.14,1.482,1.482,0,0,1-1.665-1.649V5.327h-.849V4.188h.849V2.76ZM97.49,7.041A3.447,3.447,0,0,1,97.823,5.5a2.438,2.438,0,0,1,.959-1.047,2.8,2.8,0,0,1,1.453-.371,2.646,2.646,0,0,1,1.92.72,2.889,2.889,0,0,1,.83,1.955l.011.4a3.038,3.038,0,0,1-.747,2.146,2.894,2.894,0,0,1-4.01,0A3.091,3.091,0,0,1,97.49,7.11Zm1.552.11a2.172,2.172,0,0,0,.312,1.267,1.119,1.119,0,0,0,1.772.005,2.377,2.377,0,0,0,.317-1.385,2.151,2.151,0,0,0-.317-1.259,1.03,1.03,0,0,0-.892-.446,1.013,1.013,0,0,0-.881.444A2.417,2.417,0,0,0,99.042,7.151Zm8.175-1.507a4.217,4.217,0,0,0-.559-.043,1.137,1.137,0,0,0-1.155.6V10h-1.552V4.188h1.466l.043.693a1.438,1.438,0,0,1,1.294-.8,1.626,1.626,0,0,1,.483.07ZM109.6,10h-1.558V4.188H109.6Zm-1.649-7.315a.764.764,0,0,1,.234-.575,1.007,1.007,0,0,1,1.27,0,.76.76,0,0,1,.236.575.762.762,0,0,1-.239.58,1,1,0,0,1-1.262,0A.762.762,0,0,1,107.953,2.685Zm2.686,4.356a3.447,3.447,0,0,1,.333-1.542,2.438,2.438,0,0,1,.959-1.047,2.8,2.8,0,0,1,1.453-.371,2.646,2.646,0,0,1,1.92.72,2.889,2.889,0,0,1,.83,1.955l.011.4A3.038,3.038,0,0,1,115.4,9.3a2.894,2.894,0,0,1-4.01,0,3.091,3.091,0,0,1-.749-2.191Zm1.552.11a2.172,2.172,0,0,0,.312,1.267,1.119,1.119,0,0,0,1.772.005,2.377,2.377,0,0,0,.317-1.385,2.151,2.151,0,0,0-.317-1.259,1.03,1.03,0,0,0-.892-.446,1.013,1.013,0,0,0-.881.444A2.417,2.417,0,0,0,112.19,7.151Z" transform="translate(608.09 1320.625)" fill="#3366c2"/>
    <path id="Trazado_104644" data-name="Trazado 104644" d="M72.3,2.18l2.009,5.672,2-5.672h2.116V10H76.808V7.862l.161-3.69L74.859,10H73.752L71.647,4.178l.161,3.685V10H70.2V2.18Zm7.187,4.861A3.447,3.447,0,0,1,79.821,5.5a2.438,2.438,0,0,1,.959-1.047,2.8,2.8,0,0,1,1.453-.371,2.646,2.646,0,0,1,1.92.72,2.889,2.889,0,0,1,.83,1.955l.011.4A3.038,3.038,0,0,1,84.247,9.3a2.894,2.894,0,0,1-4.01,0,3.091,3.091,0,0,1-.749-2.191Zm1.552.11a2.172,2.172,0,0,0,.312,1.267,1.119,1.119,0,0,0,1.772.005,2.377,2.377,0,0,0,.317-1.385,2.151,2.151,0,0,0-.317-1.259,1.03,1.03,0,0,0-.892-.446,1.013,1.013,0,0,0-.881.444A2.417,2.417,0,0,0,81.041,7.151Zm4.667-.1a3.5,3.5,0,0,1,.61-2.165,1.978,1.978,0,0,1,1.668-.806,1.78,1.78,0,0,1,1.4.634V1.75h1.558V10h-1.4l-.075-.618a1.827,1.827,0,0,1-1.493.725A1.973,1.973,0,0,1,86.329,9.3,3.615,3.615,0,0,1,85.708,7.051Zm1.552.11a2.307,2.307,0,0,0,.285,1.257.927.927,0,0,0,.827.437,1.038,1.038,0,0,0,1.015-.61v-2.3a1.023,1.023,0,0,0-1-.61Q87.26,5.333,87.26,7.162Zm7.563,2.946a2.853,2.853,0,0,1-2.081-.784,2.787,2.787,0,0,1-.8-2.089v-.15a3.511,3.511,0,0,1,.338-1.566,2.483,2.483,0,0,1,.959-1.063,2.691,2.691,0,0,1,1.415-.373,2.412,2.412,0,0,1,1.877.752,3.056,3.056,0,0,1,.685,2.132V7.6h-3.7a1.442,1.442,0,0,0,.454.913,1.372,1.372,0,0,0,.959.344,1.675,1.675,0,0,0,1.4-.65l.763.854a2.33,2.33,0,0,1-.945.771A3.1,3.1,0,0,1,94.823,10.107Zm-.177-4.775a.97.97,0,0,0-.749.313,1.62,1.62,0,0,0-.368.9h2.159V6.417a1.156,1.156,0,0,0-.279-.8A1,1,0,0,0,94.646,5.333ZM99.732,10H98.174V1.75h1.558Zm1.037-2.959A3.447,3.447,0,0,1,101.1,5.5a2.438,2.438,0,0,1,.959-1.047,2.8,2.8,0,0,1,1.453-.371,2.646,2.646,0,0,1,1.92.72,2.889,2.889,0,0,1,.83,1.955l.011.4a3.038,3.038,0,0,1-.747,2.146,2.894,2.894,0,0,1-4.01,0,3.091,3.091,0,0,1-.749-2.191Zm1.552.11a2.172,2.172,0,0,0,.312,1.267,1.119,1.119,0,0,0,1.772.005,2.377,2.377,0,0,0,.317-1.385,2.151,2.151,0,0,0-.317-1.259,1.03,1.03,0,0,0-.892-.446,1.013,1.013,0,0,0-.881.444A2.417,2.417,0,0,0,102.321,7.151Z" transform="translate(815.665 1320.625)" fill="#3366c2"/>
    <path id="Trazado_104645" data-name="Trazado 104645" d="M116.846,8.389H114.02L113.483,10H111.77l2.911-7.82h1.493L119.1,10h-1.713Zm-2.39-1.305h1.955l-.983-2.927Zm10.248.064a3.485,3.485,0,0,1-.61,2.151,1.955,1.955,0,0,1-1.646.808,1.811,1.811,0,0,1-1.423-.612v2.739h-1.552V4.188h1.439l.054.569a1.824,1.824,0,0,1,1.472-.677,1.968,1.968,0,0,1,1.67.795,3.58,3.58,0,0,1,.6,2.191Zm-1.552-.118a2.3,2.3,0,0,0-.287-1.255.935.935,0,0,0-.835-.442,1.016,1.016,0,0,0-1,.56V8.279a1.033,1.033,0,0,0,1.015.576Q123.151,8.856,123.151,7.03ZM127.3,10h-1.558V1.75H127.3Zm2.917,0h-1.558V4.188h1.558Zm-1.649-7.315a.764.764,0,0,1,.234-.575,1.007,1.007,0,0,1,1.27,0,.76.76,0,0,1,.236.575.762.762,0,0,1-.239.58,1,1,0,0,1-1.262,0A.762.762,0,0,1,128.571,2.685Zm5.344,6.171a1.018,1.018,0,0,0,.7-.236.828.828,0,0,0,.279-.628h1.456a1.991,1.991,0,0,1-.322,1.082,2.126,2.126,0,0,1-.867.763,2.715,2.715,0,0,1-1.217.271,2.523,2.523,0,0,1-1.966-.792,3.135,3.135,0,0,1-.72-2.189v-.1a3.1,3.1,0,0,1,.714-2.143,2.494,2.494,0,0,1,1.96-.8,2.444,2.444,0,0,1,1.748.62,2.2,2.2,0,0,1,.669,1.652h-1.456a1.067,1.067,0,0,0-.279-.737,1.038,1.038,0,0,0-1.528.112,2.291,2.291,0,0,0-.277,1.283v.161a2.32,2.32,0,0,0,.274,1.291A.947.947,0,0,0,133.915,8.856ZM140.6,10a1.724,1.724,0,0,1-.156-.521,1.878,1.878,0,0,1-1.466.628,2.063,2.063,0,0,1-1.415-.494A1.589,1.589,0,0,1,137,8.367a1.642,1.642,0,0,1,.685-1.418,3.379,3.379,0,0,1,1.979-.5h.714V6.117a.958.958,0,0,0-.207-.645.814.814,0,0,0-.653-.242.925.925,0,0,0-.615.188.639.639,0,0,0-.223.516h-1.552A1.559,1.559,0,0,1,137.444,5a2.059,2.059,0,0,1,.881-.674,3.21,3.21,0,0,1,1.278-.244,2.536,2.536,0,0,1,1.705.54,1.888,1.888,0,0,1,.631,1.517V8.657a2.778,2.778,0,0,0,.231,1.251V10Zm-1.284-1.08a1.337,1.337,0,0,0,.634-.153,1,1,0,0,0,.43-.411v-1h-.58q-1.166,0-1.241.806l-.005.091a.621.621,0,0,0,.2.478A.793.793,0,0,0,139.318,8.92Zm6.23-.064a1.018,1.018,0,0,0,.7-.236.828.828,0,0,0,.279-.628h1.456a1.991,1.991,0,0,1-.322,1.082,2.126,2.126,0,0,1-.867.763,2.715,2.715,0,0,1-1.217.271,2.523,2.523,0,0,1-1.966-.792,3.135,3.135,0,0,1-.72-2.189v-.1a3.1,3.1,0,0,1,.714-2.143,2.494,2.494,0,0,1,1.96-.8,2.444,2.444,0,0,1,1.748.62,2.2,2.2,0,0,1,.669,1.652h-1.456a1.067,1.067,0,0,0-.279-.737,1.038,1.038,0,0,0-1.528.112,2.291,2.291,0,0,0-.277,1.283v.161a2.32,2.32,0,0,0,.274,1.291A.947.947,0,0,0,145.549,8.856ZM150.506,10h-1.558V4.188h1.558Zm-1.649-7.315a.764.764,0,0,1,.234-.575,1.007,1.007,0,0,1,1.27,0,.76.76,0,0,1,.236.575.762.762,0,0,1-.239.58,1,1,0,0,1-1.262,0A.762.762,0,0,1,148.857,2.685Zm2.686,4.356a3.447,3.447,0,0,1,.333-1.542,2.438,2.438,0,0,1,.959-1.047,2.8,2.8,0,0,1,1.453-.371,2.646,2.646,0,0,1,1.92.72,2.889,2.889,0,0,1,.83,1.955l.011.4A3.037,3.037,0,0,1,156.3,9.3a2.894,2.894,0,0,1-4.01,0,3.091,3.091,0,0,1-.749-2.191Zm1.552.11a2.172,2.172,0,0,0,.312,1.267,1.119,1.119,0,0,0,1.772.005,2.377,2.377,0,0,0,.317-1.385,2.151,2.151,0,0,0-.317-1.259,1.03,1.03,0,0,0-.892-.446,1.013,1.013,0,0,0-.881.444A2.417,2.417,0,0,0,153.1,7.151Zm1.5-5.4h1.692L154.8,3.415h-1.262Zm4.839,2.438.048.671a2.029,2.029,0,0,1,1.67-.779,1.686,1.686,0,0,1,1.375.542,2.531,2.531,0,0,1,.462,1.622V10h-1.552V6.275a1.011,1.011,0,0,0-.215-.719.96.96,0,0,0-.714-.223,1.067,1.067,0,0,0-.983.56V10h-1.552V4.188Zm7.541,2.632a8.243,8.243,0,0,1,.328-2.342,6.18,6.18,0,0,1,.967-1.969,3.61,3.61,0,0,1,1.386-1.19l.3.838a3.739,3.739,0,0,0-1.225,1.794,8.306,8.306,0,0,0-.44,2.836v.167a8.465,8.465,0,0,0,.435,2.847,3.811,3.811,0,0,0,1.23,1.821l-.3.822a3.611,3.611,0,0,1-1.362-1.157,6.076,6.076,0,0,1-.964-1.915,8.194,8.194,0,0,1-.354-2.267Zm10.033.575a2.767,2.767,0,0,1-.932,1.987,3.273,3.273,0,0,1-2.216.725,2.943,2.943,0,0,1-2.366-1.012,4.151,4.151,0,0,1-.862-2.78V5.837a4.688,4.688,0,0,1,.4-1.987,2.978,2.978,0,0,1,1.136-1.319,3.55,3.55,0,0,1,3.9.266,2.974,2.974,0,0,1,.956,2.036h-1.611a1.633,1.633,0,0,0-.422-1.1,1.561,1.561,0,0,0-1.1-.341,1.369,1.369,0,0,0-1.206.577,3.236,3.236,0,0,0-.411,1.791v.591a3.463,3.463,0,0,0,.384,1.853,1.344,1.344,0,0,0,1.211.585,1.591,1.591,0,0,0,1.115-.341A1.54,1.54,0,0,0,175.4,7.4Zm.714-.354a3.447,3.447,0,0,1,.333-1.542,2.438,2.438,0,0,1,.959-1.047,2.8,2.8,0,0,1,1.453-.371,2.646,2.646,0,0,1,1.92.72,2.889,2.889,0,0,1,.83,1.955l.011.4A3.037,3.037,0,0,1,182.48,9.3a2.894,2.894,0,0,1-4.01,0,3.091,3.091,0,0,1-.749-2.191Zm1.552.11a2.172,2.172,0,0,0,.312,1.267,1.119,1.119,0,0,0,1.772.005,2.377,2.377,0,0,0,.317-1.385,2.151,2.151,0,0,0-.317-1.259,1.03,1.03,0,0,0-.892-.446,1.013,1.013,0,0,0-.881.444A2.417,2.417,0,0,0,179.274,7.151Zm6.365-2.962.048.65a2.042,2.042,0,0,1,1.67-.757,1.55,1.55,0,0,1,1.542.886,2,2,0,0,1,1.746-.886,1.733,1.733,0,0,1,1.407.551,2.531,2.531,0,0,1,.462,1.657V10h-1.558V6.285a1.111,1.111,0,0,0-.193-.724.856.856,0,0,0-.682-.229.969.969,0,0,0-.967.668l.005,4h-1.552V6.291a1.1,1.1,0,0,0-.2-.732.864.864,0,0,0-.677-.226,1.006,1.006,0,0,0-.956.549V10h-1.552V4.188Zm13.3,2.959a3.485,3.485,0,0,1-.61,2.151,1.955,1.955,0,0,1-1.646.808,1.811,1.811,0,0,1-1.423-.612v2.739h-1.552V4.188h1.439l.054.569a1.824,1.824,0,0,1,1.472-.677,1.968,1.968,0,0,1,1.67.795,3.58,3.58,0,0,1,.6,2.191Zm-1.552-.118a2.3,2.3,0,0,0-.287-1.255.935.935,0,0,0-.835-.442,1.016,1.016,0,0,0-1,.56V8.279a1.033,1.033,0,0,0,1.015.576Q197.385,8.856,197.385,7.03Zm2.272.011A3.447,3.447,0,0,1,199.99,5.5a2.438,2.438,0,0,1,.959-1.047,2.8,2.8,0,0,1,1.453-.371,2.646,2.646,0,0,1,1.92.72,2.889,2.889,0,0,1,.83,1.955l.011.4a3.037,3.037,0,0,1-.747,2.146,2.894,2.894,0,0,1-4.01,0,3.091,3.091,0,0,1-.749-2.191Zm1.552.11a2.172,2.172,0,0,0,.312,1.267,1.119,1.119,0,0,0,1.772.005,2.377,2.377,0,0,0,.317-1.385,2.151,2.151,0,0,0-.317-1.259,1.03,1.03,0,0,0-.892-.446,1.013,1.013,0,0,0-.881.444A2.417,2.417,0,0,0,201.209,7.151Zm6.338-2.962.048.671a2.029,2.029,0,0,1,1.67-.779,1.686,1.686,0,0,1,1.375.542,2.531,2.531,0,0,1,.462,1.622V10h-1.552V6.275a1.011,1.011,0,0,0-.215-.719.96.96,0,0,0-.714-.223,1.067,1.067,0,0,0-.983.56V10h-1.552V4.188Zm7.407,5.919a2.853,2.853,0,0,1-2.081-.784,2.787,2.787,0,0,1-.8-2.089v-.15a3.511,3.511,0,0,1,.338-1.566,2.483,2.483,0,0,1,.959-1.063,2.691,2.691,0,0,1,1.415-.373,2.412,2.412,0,0,1,1.877.752,3.056,3.056,0,0,1,.685,2.132V7.6h-3.7a1.442,1.442,0,0,0,.454.913,1.372,1.372,0,0,0,.959.344,1.675,1.675,0,0,0,1.4-.65l.763.854a2.33,2.33,0,0,1-.945.771A3.1,3.1,0,0,1,214.954,10.107Zm-.177-4.775a.97.97,0,0,0-.749.313,1.62,1.62,0,0,0-.368.9h2.159V6.417a1.156,1.156,0,0,0-.279-.8A1,1,0,0,0,214.777,5.333Zm4.877-1.144.048.671a2.029,2.029,0,0,1,1.67-.779,1.686,1.686,0,0,1,1.375.542,2.531,2.531,0,0,1,.462,1.622V10h-1.552V6.275a1.011,1.011,0,0,0-.215-.719.96.96,0,0,0-.714-.223,1.067,1.067,0,0,0-.983.56V10h-1.552V4.188Zm6.59-1.429V4.188h.994V5.327h-.994v2.9a.693.693,0,0,0,.124.462.62.62,0,0,0,.473.14,2.475,2.475,0,0,0,.457-.038V9.968a3.2,3.2,0,0,1-.94.14,1.482,1.482,0,0,1-1.665-1.649V5.327h-.849V4.188h.849V2.76Zm4.533,7.348a2.853,2.853,0,0,1-2.081-.784,2.787,2.787,0,0,1-.8-2.089v-.15a3.511,3.511,0,0,1,.338-1.566,2.483,2.483,0,0,1,.959-1.063,2.691,2.691,0,0,1,1.415-.373,2.412,2.412,0,0,1,1.877.752,3.056,3.056,0,0,1,.685,2.132V7.6h-3.7a1.442,1.442,0,0,0,.454.913,1.372,1.372,0,0,0,.959.344,1.675,1.675,0,0,0,1.4-.65l.763.854a2.33,2.33,0,0,1-.945.771A3.1,3.1,0,0,1,230.777,10.107ZM230.6,5.333a.97.97,0,0,0-.749.313,1.62,1.62,0,0,0-.368.9h2.159V6.417a1.156,1.156,0,0,0-.279-.8A1,1,0,0,0,230.6,5.333ZM238.426,10h-1.558V1.75h1.558Zm1.037-2.959A3.447,3.447,0,0,1,239.8,5.5a2.438,2.438,0,0,1,.959-1.047,2.8,2.8,0,0,1,1.453-.371,2.646,2.646,0,0,1,1.92.72,2.889,2.889,0,0,1,.83,1.955l.011.4a3.037,3.037,0,0,1-.747,2.146,2.894,2.894,0,0,1-4.01,0,3.091,3.091,0,0,1-.749-2.191Zm1.552.11a2.172,2.172,0,0,0,.312,1.267,1.119,1.119,0,0,0,1.772.005,2.377,2.377,0,0,0,.317-1.385,2.151,2.151,0,0,0-.317-1.259,1.03,1.03,0,0,0-.892-.446,1.013,1.013,0,0,0-.881.444A2.417,2.417,0,0,0,241.015,7.151Zm1.5-5.4h1.692l-1.488,1.665h-1.262Zm3.185,5.3a3.406,3.406,0,0,1,.636-2.154,2.062,2.062,0,0,1,1.716-.816,1.809,1.809,0,0,1,1.488.655l.064-.548h1.407V9.807a2.484,2.484,0,0,1-.346,1.327,2.225,2.225,0,0,1-.975.859,3.427,3.427,0,0,1-1.472.3,3.187,3.187,0,0,1-1.246-.255,2.212,2.212,0,0,1-.918-.658l.688-.945a1.818,1.818,0,0,0,1.407.65,1.331,1.331,0,0,0,.961-.33,1.239,1.239,0,0,0,.344-.937V9.5a1.8,1.8,0,0,1-1.413.607,2.057,2.057,0,0,1-1.695-.819,3.405,3.405,0,0,1-.647-2.173Zm1.552.11a2.132,2.132,0,0,0,.317,1.244,1.007,1.007,0,0,0,.87.451,1.077,1.077,0,0,0,1.015-.534V5.867a1.075,1.075,0,0,0-1-.534,1.014,1.014,0,0,0-.878.459A2.4,2.4,0,0,0,247.25,7.162ZM253.841,10h-1.558V4.188h1.558Zm-1.649-7.315a.764.764,0,0,1,.234-.575,1.007,1.007,0,0,1,1.27,0,.76.76,0,0,1,.236.575.762.762,0,0,1-.239.58,1,1,0,0,1-1.262,0A.762.762,0,0,1,252.192,2.685Zm5.344,6.171a1.018,1.018,0,0,0,.7-.236.828.828,0,0,0,.279-.628h1.456a1.991,1.991,0,0,1-.322,1.082,2.127,2.127,0,0,1-.867.763,2.715,2.715,0,0,1-1.217.271,2.523,2.523,0,0,1-1.966-.792,3.135,3.135,0,0,1-.72-2.189v-.1a3.1,3.1,0,0,1,.714-2.143,2.494,2.494,0,0,1,1.96-.8,2.444,2.444,0,0,1,1.748.62,2.2,2.2,0,0,1,.669,1.652h-1.456a1.067,1.067,0,0,0-.279-.737,1.038,1.038,0,0,0-1.528.112,2.291,2.291,0,0,0-.277,1.283v.161a2.32,2.32,0,0,0,.274,1.291A.947.947,0,0,0,257.536,8.856Zm3.078-1.815a3.446,3.446,0,0,1,.333-1.542,2.438,2.438,0,0,1,.959-1.047,2.8,2.8,0,0,1,1.453-.371,2.646,2.646,0,0,1,1.92.72,2.888,2.888,0,0,1,.83,1.955l.011.4a3.038,3.038,0,0,1-.747,2.146,2.894,2.894,0,0,1-4.01,0,3.091,3.091,0,0,1-.749-2.191Zm1.552.11a2.172,2.172,0,0,0,.312,1.267,1.119,1.119,0,0,0,1.772.005,2.377,2.377,0,0,0,.317-1.385,2.15,2.15,0,0,0-.317-1.259,1.03,1.03,0,0,0-.892-.446,1.013,1.013,0,0,0-.881.444A2.417,2.417,0,0,0,262.166,7.151Zm7.584-.207A7.821,7.821,0,0,1,269.4,9.28a6.342,6.342,0,0,1-1,1.982,3.619,3.619,0,0,1-1.4,1.182l-.3-.822a3.777,3.777,0,0,0,1.2-1.772,8.208,8.208,0,0,0,.457-2.755V6.81a8.393,8.393,0,0,0-.438-2.831,3.937,3.937,0,0,0-1.222-1.837l.3-.822a3.62,3.62,0,0,1,1.378,1.149,6.26,6.26,0,0,1,1,1.939A7.766,7.766,0,0,1,269.75,6.7Z" transform="translate(608.09 1360.928)" fill="#fff"/>
  </g>
</svg>
