<svg xmlns="http://www.w3.org/2000/svg" xmlns:xlink="http://www.w3.org/1999/xlink" width="813.684" height="305.675" viewBox="0 0 813.684 305.675">
  <defs>
    <radialGradient id="radial-gradient" cx="0.5" cy="0.5" r="0.656" gradientTransform="translate(0.18) scale(0.639 1)" gradientUnits="objectBoundingBox">
      <stop offset="0" stop-color="#36a9e1"/>
      <stop offset="1" stop-color="#3366c2"/>
    </radialGradient>
  </defs>
  <g id="Grupo_55701" data-name="Grupo 55701" transform="translate(-394 -1761.372)">
    <path id="Trazado_104660" data-name="Trazado 104660" d="M0,0H502.979V302.308H0Z" transform="translate(703.021 1763.056)" stroke="#fff" stroke-width="3.367" fill="url(#radial-gradient)"/>
    <path id="Trazado_104661" data-name="Trazado 104661" d="M0,0H453.576V104.5H0Z" transform="translate(725.539 1793.41)" fill="#d0e6f7" stroke="#fff" stroke-width="1.683"/>
    <path id="Trazado_104662" data-name="Trazado 104662" d="M0,0H178.232V38.775H0Z" transform="translate(754.897 1813.248)" fill="#0991a1" stroke="#fff" stroke-width="1.683"/>
    <path id="Trazado_104663" data-name="Trazado 104663" d="M-17.808-5.205h-2.334V0h-2.93V-14.219h5.283A5.972,5.972,0,0,1-13.9-13.1a3.876,3.876,0,0,1,1.367,3.174,4.374,4.374,0,0,1-.63,2.427,4.3,4.3,0,0,1-1.909,1.548L-12-.137V0h-3.145Zm-2.334-2.373h2.363a2.42,2.42,0,0,0,1.709-.562,2.007,2.007,0,0,0,.605-1.548,2.148,2.148,0,0,0-.571-1.582,2.374,2.374,0,0,0-1.753-.576h-2.354Zm18.389,1.4H-7.378v3.828h6.6V0h-9.531V-14.219H-.8v2.373H-7.378v3.389h5.625ZM8.315-3.73A1.5,1.5,0,0,0,7.729-5,7.685,7.685,0,0,0,5.62-5.942a14.953,14.953,0,0,1-2.412-.972A3.941,3.941,0,0,1,.786-10.439,3.434,3.434,0,0,1,1.436-12.5,4.236,4.236,0,0,1,3.3-13.906a7.02,7.02,0,0,1,2.729-.508,6.39,6.39,0,0,1,2.715.552A4.323,4.323,0,0,1,10.6-12.3a4.076,4.076,0,0,1,.659,2.285H8.325a1.917,1.917,0,0,0-.615-1.519,2.529,2.529,0,0,0-1.729-.542,2.7,2.7,0,0,0-1.67.454,1.432,1.432,0,0,0-.6,1.2,1.372,1.372,0,0,0,.7,1.162,7.889,7.889,0,0,0,2.056.879,8.882,8.882,0,0,1,3.643,1.865A3.715,3.715,0,0,1,11.255-3.75a3.422,3.422,0,0,1-1.4,2.9A6.113,6.113,0,0,1,6.1.2a7.26,7.26,0,0,1-2.988-.6A4.729,4.729,0,0,1,1.055-2.051,4.214,4.214,0,0,1,.347-4.473H3.286q0,2.354,2.813,2.354a2.736,2.736,0,0,0,1.631-.425A1.382,1.382,0,0,0,8.315-3.73ZM23.94-11.846H19.585V0h-2.93V-11.846h-4.3v-2.373H23.94Z" transform="translate(843.657 1840.1)" fill="#fff"/>
    <path id="Trazado_104664" data-name="Trazado 104664" d="M0,0H178.232V38.775H0Z" transform="translate(971.526 1813.248)" fill="#0991a1" stroke="#fff" stroke-width="1.683"/>
    <path id="Trazado_104665" data-name="Trazado 104665" d="M-17.485-3.73A1.5,1.5,0,0,0-18.071-5a7.685,7.685,0,0,0-2.109-.937,14.953,14.953,0,0,1-2.412-.972,3.941,3.941,0,0,1-2.422-3.525,3.434,3.434,0,0,1,.649-2.056A4.236,4.236,0,0,1-22.5-13.906a7.02,7.02,0,0,1,2.729-.508,6.39,6.39,0,0,1,2.715.552A4.323,4.323,0,0,1-15.205-12.3a4.076,4.076,0,0,1,.659,2.285h-2.93a1.917,1.917,0,0,0-.615-1.519,2.529,2.529,0,0,0-1.729-.542,2.7,2.7,0,0,0-1.67.454,1.432,1.432,0,0,0-.6,1.2,1.372,1.372,0,0,0,.7,1.162,7.889,7.889,0,0,0,2.056.879,8.882,8.882,0,0,1,3.643,1.865A3.715,3.715,0,0,1-14.546-3.75a3.422,3.422,0,0,1-1.4,2.9A6.113,6.113,0,0,1-19.7.2a7.26,7.26,0,0,1-2.988-.6,4.729,4.729,0,0,1-2.056-1.646,4.214,4.214,0,0,1-.708-2.422h2.939q0,2.354,2.813,2.354a2.736,2.736,0,0,0,1.631-.425A1.382,1.382,0,0,0-17.485-3.73Zm16.6-3.057a8.583,8.583,0,0,1-.742,3.682A5.589,5.589,0,0,1-3.75-.664,5.875,5.875,0,0,1-6.919.2a5.915,5.915,0,0,1-3.154-.85,5.644,5.644,0,0,1-2.148-2.427,8.338,8.338,0,0,1-.771-3.628v-.7a8.538,8.538,0,0,1,.757-3.7A5.635,5.635,0,0,1-10.1-13.56a5.883,5.883,0,0,1,3.159-.854,5.883,5.883,0,0,1,3.159.854,5.635,5.635,0,0,1,2.139,2.451A8.514,8.514,0,0,1-.884-7.422Zm-2.969-.645a5.984,5.984,0,0,0-.8-3.4,2.61,2.61,0,0,0-2.285-1.162,2.611,2.611,0,0,0-2.275,1.147,5.915,5.915,0,0,0-.811,3.364v.693a6.058,6.058,0,0,0,.8,3.379,2.6,2.6,0,0,0,2.3,1.2A2.579,2.579,0,0,0-4.653-3.364a6.023,6.023,0,0,0,.8-3.374Zm12.92,4.5H3.931L2.954,0H-.161L5.132-14.219H7.847L13.169,0H10.054ZM4.722-5.3H8.276L6.489-10.625Zm12.705.293V0H14.5V-14.219h5.547a6.417,6.417,0,0,1,2.817.586,4.318,4.318,0,0,1,1.87,1.665,4.643,4.643,0,0,1,.654,2.456,4.083,4.083,0,0,1-1.431,3.3A5.959,5.959,0,0,1,20-5.01Zm0-2.373h2.617a2.573,2.573,0,0,0,1.772-.547,1.989,1.989,0,0,0,.61-1.562,2.345,2.345,0,0,0-.615-1.689,2.3,2.3,0,0,0-1.7-.664H17.427Z" transform="translate(1060.264 1840.1)" fill="#fff"/>
    <path id="Trazado_104666" data-name="Trazado 104666" d="M196.919,13.181h-2.161V18h-2.713V4.835h4.892a5.53,5.53,0,0,1,3.6,1.04A3.589,3.589,0,0,1,201.8,8.813a4.05,4.05,0,0,1-.583,2.247,3.978,3.978,0,0,1-1.768,1.433l2.848,5.38V18h-2.911Zm-2.161-2.2h2.188a2.24,2.24,0,0,0,1.582-.52,1.858,1.858,0,0,0,.561-1.433,1.989,1.989,0,0,0-.529-1.465,2.2,2.2,0,0,0-1.623-.533h-2.179Zm13.436,7.2a4.8,4.8,0,0,1-3.5-1.32,4.692,4.692,0,0,1-1.352-3.517V13.09a5.91,5.91,0,0,1,.57-2.636,4.181,4.181,0,0,1,1.614-1.79,4.53,4.53,0,0,1,2.383-.628,4.06,4.06,0,0,1,3.16,1.266,5.144,5.144,0,0,1,1.153,3.59v1.067h-6.23a2.428,2.428,0,0,0,.764,1.537,2.31,2.31,0,0,0,1.614.579,2.821,2.821,0,0,0,2.36-1.094l1.284,1.438a3.923,3.923,0,0,1-1.591,1.3A5.221,5.221,0,0,1,208.194,18.181Zm-.3-8.038a1.633,1.633,0,0,0-1.261.527,2.728,2.728,0,0,0-.619,1.508h3.635v-.209a1.945,1.945,0,0,0-.47-1.349A1.685,1.685,0,0,0,207.9,10.143Zm9.874,5.932a1.714,1.714,0,0,0,1.175-.4,1.394,1.394,0,0,0,.47-1.058h2.45a3.352,3.352,0,0,1-.543,1.822,3.58,3.58,0,0,1-1.46,1.284,4.57,4.57,0,0,1-2.048.457,4.247,4.247,0,0,1-3.309-1.334,5.278,5.278,0,0,1-1.212-3.685v-.172a5.217,5.217,0,0,1,1.2-3.608,4.2,4.2,0,0,1,3.3-1.347A4.115,4.115,0,0,1,220.74,9.08a3.7,3.7,0,0,1,1.126,2.78h-2.45a1.8,1.8,0,0,0-.47-1.241,1.748,1.748,0,0,0-2.572.188,3.857,3.857,0,0,0-.466,2.16v.272a3.906,3.906,0,0,0,.461,2.173A1.594,1.594,0,0,0,217.769,16.074Zm11.447.931a3.277,3.277,0,0,1-2.676,1.175,3.091,3.091,0,0,1-2.4-.9,3.86,3.86,0,0,1-.845-2.649V8.217h2.613v6.328q0,1.53,1.392,1.53a1.887,1.887,0,0,0,1.826-.923V8.217h2.622V18h-2.459Zm10-6.338a7.1,7.1,0,0,0-.94-.072,1.914,1.914,0,0,0-1.944,1V18h-2.613V8.217h2.468l.072,1.166a2.421,2.421,0,0,1,2.179-1.347,2.738,2.738,0,0,1,.814.118Zm6.555,4.629a.842.842,0,0,0-.475-.755,5.392,5.392,0,0,0-1.524-.493q-3.49-.732-3.49-2.966a2.688,2.688,0,0,1,1.081-2.175,4.359,4.359,0,0,1,2.826-.873,4.691,4.691,0,0,1,2.979.877,2.764,2.764,0,0,1,1.117,2.279h-2.613a1.264,1.264,0,0,0-.362-.927,1.531,1.531,0,0,0-1.13-.366,1.564,1.564,0,0,0-1.022.3.942.942,0,0,0-.362.76.805.805,0,0,0,.411.7,4.232,4.232,0,0,0,1.388.461,11.337,11.337,0,0,1,1.646.439,2.7,2.7,0,0,1,2.071,2.631,2.552,2.552,0,0,1-1.148,2.166,4.954,4.954,0,0,1-2.966.827,5.174,5.174,0,0,1-2.184-.439,3.664,3.664,0,0,1-1.5-1.2,2.794,2.794,0,0,1-.543-1.65h2.477a1.364,1.364,0,0,0,.515,1.067,2.044,2.044,0,0,0,1.284.371,1.892,1.892,0,0,0,1.135-.285A.886.886,0,0,0,245.772,15.3Zm3.816-2.279a5.8,5.8,0,0,1,.561-2.6,4.1,4.1,0,0,1,1.614-1.763,4.709,4.709,0,0,1,2.446-.624,4.455,4.455,0,0,1,3.232,1.212,4.863,4.863,0,0,1,1.4,3.291l.018.669A5.113,5.113,0,0,1,257.6,16.82a4.871,4.871,0,0,1-6.75,0,5.2,5.2,0,0,1-1.261-3.689Zm2.613.186a3.657,3.657,0,0,0,.524,2.133,1.884,1.884,0,0,0,2.984.009,4,4,0,0,0,.533-2.332,3.62,3.62,0,0,0-.533-2.119,1.734,1.734,0,0,0-1.5-.752,1.706,1.706,0,0,0-1.483.747A4.069,4.069,0,0,0,252.2,13.2Z" transform="translate(725.539 1865.173)" fill="#3366c2"/>
    <path id="Trazado_104667" data-name="Trazado 104667" d="M0,0H453.576V45.857H0Z" transform="translate(725.539 1919.361)" fill="#d0e6f7" stroke="#fff" stroke-width="1.115"/>
    <path id="Trazado_104668" data-name="Trazado 104668" d="M199.36,14.546a1.392,1.392,0,0,0-.543-1.18,7.116,7.116,0,0,0-1.953-.868,13.845,13.845,0,0,1-2.233-.9,3.649,3.649,0,0,1-2.242-3.264,3.179,3.179,0,0,1,.6-1.9,3.922,3.922,0,0,1,1.727-1.307,6.5,6.5,0,0,1,2.527-.47,5.917,5.917,0,0,1,2.514.511,4,4,0,0,1,1.713,1.442,3.774,3.774,0,0,1,.61,2.116h-2.713a1.775,1.775,0,0,0-.57-1.406,2.342,2.342,0,0,0-1.6-.5,2.5,2.5,0,0,0-1.546.42,1.326,1.326,0,0,0-.552,1.108,1.27,1.27,0,0,0,.646,1.076,7.3,7.3,0,0,0,1.9.814,8.224,8.224,0,0,1,3.373,1.727,3.439,3.439,0,0,1,1.058,2.568,3.168,3.168,0,0,1-1.293,2.681,5.66,5.66,0,0,1-3.481.972,6.722,6.722,0,0,1-2.767-.556,4.378,4.378,0,0,1-1.9-1.524,3.9,3.9,0,0,1-.656-2.242H194.7q0,2.179,2.6,2.179a2.533,2.533,0,0,0,1.51-.393A1.28,1.28,0,0,0,199.36,14.546Zm8.888,3.635a4.8,4.8,0,0,1-3.5-1.32,4.692,4.692,0,0,1-1.352-3.517V13.09a5.91,5.91,0,0,1,.57-2.636,4.181,4.181,0,0,1,1.614-1.79,4.53,4.53,0,0,1,2.383-.628,4.06,4.06,0,0,1,3.16,1.266,5.144,5.144,0,0,1,1.153,3.59v1.067h-6.23a2.428,2.428,0,0,0,.764,1.537,2.31,2.31,0,0,0,1.614.579,2.821,2.821,0,0,0,2.36-1.094l1.284,1.438a3.923,3.923,0,0,1-1.591,1.3A5.221,5.221,0,0,1,208.248,18.181Zm-.3-8.038a1.633,1.633,0,0,0-1.261.527,2.728,2.728,0,0,0-.619,1.508H209.7v-.209a1.945,1.945,0,0,0-.47-1.349A1.685,1.685,0,0,0,207.95,10.143Zm11.3.524a7.1,7.1,0,0,0-.94-.072,1.914,1.914,0,0,0-1.944,1V18h-2.613V8.217h2.468l.072,1.166a2.421,2.421,0,0,1,2.179-1.347,2.738,2.738,0,0,1,.814.118Zm5.082,4.141,1.817-6.592h2.731L225.582,18h-2.5l-3.3-9.783h2.731ZM232.788,18h-2.622V8.217h2.622ZM230.012,5.685a1.287,1.287,0,0,1,.393-.967,1.7,1.7,0,0,1,2.138,0,1.279,1.279,0,0,1,.4.967,1.283,1.283,0,0,1-.4.977,1.676,1.676,0,0,1-2.125,0A1.283,1.283,0,0,1,230.012,5.685Zm9,10.389a1.714,1.714,0,0,0,1.175-.4,1.394,1.394,0,0,0,.47-1.058h2.45a3.352,3.352,0,0,1-.543,1.822,3.58,3.58,0,0,1-1.46,1.284,4.57,4.57,0,0,1-2.048.457,4.247,4.247,0,0,1-3.309-1.334,5.278,5.278,0,0,1-1.212-3.685v-.172a5.217,5.217,0,0,1,1.2-3.608,4.2,4.2,0,0,1,3.3-1.347,4.115,4.115,0,0,1,2.943,1.044,3.7,3.7,0,0,1,1.126,2.78h-2.45a1.8,1.8,0,0,0-.47-1.241,1.748,1.748,0,0,0-2.572.188,3.857,3.857,0,0,0-.466,2.16v.272a3.906,3.906,0,0,0,.461,2.173A1.594,1.594,0,0,0,239.009,16.074ZM247.355,18h-2.622V8.217h2.622ZM244.579,5.685a1.287,1.287,0,0,1,.393-.967,1.7,1.7,0,0,1,2.138,0,1.279,1.279,0,0,1,.4.967,1.283,1.283,0,0,1-.4.977,1.676,1.676,0,0,1-2.125,0A1.283,1.283,0,0,1,244.579,5.685Zm4.521,7.333a5.8,5.8,0,0,1,.561-2.6,4.1,4.1,0,0,1,1.614-1.763,4.709,4.709,0,0,1,2.446-.624,4.455,4.455,0,0,1,3.232,1.212,4.863,4.863,0,0,1,1.4,3.291l.018.669a5.113,5.113,0,0,1-1.257,3.612,4.871,4.871,0,0,1-6.75,0,5.2,5.2,0,0,1-1.261-3.689Zm2.613.186a3.657,3.657,0,0,0,.524,2.133,1.884,1.884,0,0,0,2.984.009,4,4,0,0,0,.533-2.332,3.62,3.62,0,0,0-.533-2.119,1.734,1.734,0,0,0-1.5-.752,1.706,1.706,0,0,0-1.483.747A4.069,4.069,0,0,0,251.713,13.2Z" transform="translate(725.539 1930.343)" fill="#3366c2"/>
    <path id="Trazado_104669" data-name="Trazado 104669" d="M0,0H207.59V45.857H0Z" transform="translate(725.539 1986.509)" fill="#d0e6f7" stroke="#fff" stroke-width="1.115"/>
    <path id="Trazado_104670" data-name="Trazado 104670" d="M0,0H207.59V45.857H0Z" transform="translate(971.526 1986.509)" fill="#d0e6f7" stroke="#fff" stroke-width="1.115"/>
    <path id="Trazado_104671" data-name="Trazado 104671" d="M61.971,13.181H59.81V18H57.1V4.835H61.99a5.53,5.53,0,0,1,3.6,1.04,3.589,3.589,0,0,1,1.266,2.939,4.05,4.05,0,0,1-.583,2.247A3.977,3.977,0,0,1,64.5,12.493l2.848,5.38V18H64.44Zm-2.161-2.2H62a2.24,2.24,0,0,0,1.582-.52,1.858,1.858,0,0,0,.561-1.433,1.989,1.989,0,0,0-.529-1.465,2.2,2.2,0,0,0-1.623-.533H59.81Zm13.436,7.2a4.8,4.8,0,0,1-3.5-1.32,4.692,4.692,0,0,1-1.352-3.517V13.09a5.91,5.91,0,0,1,.57-2.636,4.181,4.181,0,0,1,1.614-1.79,4.53,4.53,0,0,1,2.383-.628A4.06,4.06,0,0,1,76.118,9.3a5.144,5.144,0,0,1,1.153,3.59v1.067h-6.23A2.428,2.428,0,0,0,71.8,15.5a2.31,2.31,0,0,0,1.614.579,2.821,2.821,0,0,0,2.36-1.094l1.284,1.438a3.923,3.923,0,0,1-1.591,1.3A5.221,5.221,0,0,1,73.247,18.181Zm-.3-8.038a1.633,1.633,0,0,0-1.261.527,2.728,2.728,0,0,0-.619,1.508H74.7v-.209a1.945,1.945,0,0,0-.47-1.349A1.685,1.685,0,0,0,72.948,10.143ZM87.56,13.2a5.868,5.868,0,0,1-1.026,3.621,3.29,3.29,0,0,1-2.771,1.361,3.048,3.048,0,0,1-2.4-1.031v4.611H78.753V8.217h2.423l.09.958a3.071,3.071,0,0,1,2.477-1.139,3.313,3.313,0,0,1,2.812,1.338,6.026,6.026,0,0,1,1,3.689ZM84.947,13a3.872,3.872,0,0,0-.484-2.113,1.574,1.574,0,0,0-1.406-.744,1.71,1.71,0,0,0-1.691.943V15.1a1.739,1.739,0,0,0,1.709.97Q84.947,16.074,84.947,13Zm3.825.018a5.8,5.8,0,0,1,.561-2.6A4.1,4.1,0,0,1,90.946,8.66a4.709,4.709,0,0,1,2.446-.624,4.455,4.455,0,0,1,3.232,1.212,4.863,4.863,0,0,1,1.4,3.291l.018.669a5.113,5.113,0,0,1-1.257,3.612,4.871,4.871,0,0,1-6.75,0,5.2,5.2,0,0,1-1.261-3.689Zm2.613.186a3.657,3.657,0,0,0,.524,2.133,1.884,1.884,0,0,0,2.984.009,4,4,0,0,0,.533-2.332,3.62,3.62,0,0,0-.533-2.119,1.734,1.734,0,0,0-1.5-.752,1.706,1.706,0,0,0-1.483.747A4.069,4.069,0,0,0,91.385,13.2ZM104.948,15.3a.842.842,0,0,0-.475-.755,5.392,5.392,0,0,0-1.524-.493q-3.49-.732-3.49-2.966a2.688,2.688,0,0,1,1.081-2.175,4.359,4.359,0,0,1,2.826-.873,4.691,4.691,0,0,1,2.979.877,2.764,2.764,0,0,1,1.117,2.279h-2.613a1.264,1.264,0,0,0-.362-.927,1.531,1.531,0,0,0-1.13-.366,1.564,1.564,0,0,0-1.022.3.942.942,0,0,0-.362.76.805.805,0,0,0,.411.7,4.232,4.232,0,0,0,1.388.461,11.336,11.336,0,0,1,1.646.439,2.7,2.7,0,0,1,2.071,2.631,2.552,2.552,0,0,1-1.148,2.166,4.954,4.954,0,0,1-2.966.827,5.174,5.174,0,0,1-2.184-.439,3.664,3.664,0,0,1-1.5-1.2,2.794,2.794,0,0,1-.543-1.65h2.477a1.364,1.364,0,0,0,.515,1.067,2.044,2.044,0,0,0,1.284.371,1.892,1.892,0,0,0,1.135-.285A.886.886,0,0,0,104.948,15.3Zm6.98,2.7h-2.622V8.217h2.622ZM109.152,5.685a1.287,1.287,0,0,1,.393-.967,1.7,1.7,0,0,1,2.138,0,1.279,1.279,0,0,1,.4.967,1.283,1.283,0,0,1-.4.977,1.676,1.676,0,0,1-2.125,0A1.283,1.283,0,0,1,109.152,5.685Zm8.056.127V8.217h1.673v1.917h-1.673v4.883a1.166,1.166,0,0,0,.208.778,1.045,1.045,0,0,0,.8.235,4.167,4.167,0,0,0,.769-.063v1.98a5.379,5.379,0,0,1-1.582.235,2.5,2.5,0,0,1-2.8-2.776V10.134h-1.429V8.217H114.6V5.811Zm2.45,7.206a5.8,5.8,0,0,1,.561-2.6,4.1,4.1,0,0,1,1.614-1.763,4.709,4.709,0,0,1,2.446-.624,4.455,4.455,0,0,1,3.232,1.212,4.863,4.863,0,0,1,1.4,3.291l.018.669a5.113,5.113,0,0,1-1.257,3.612,4.871,4.871,0,0,1-6.75,0,5.2,5.2,0,0,1-1.261-3.689Zm2.613.186a3.657,3.657,0,0,0,.524,2.133,1.884,1.884,0,0,0,2.984.009,4,4,0,0,0,.533-2.332,3.62,3.62,0,0,0-.533-2.119,1.734,1.734,0,0,0-1.5-.752,1.706,1.706,0,0,0-1.483.747A4.069,4.069,0,0,0,122.272,13.2Zm13.762-2.536a7.1,7.1,0,0,0-.94-.072,1.914,1.914,0,0,0-1.944,1V18h-2.613V8.217H133l.072,1.166a2.421,2.421,0,0,1,2.179-1.347,2.738,2.738,0,0,1,.814.118ZM140.049,18h-2.622V8.217h2.622ZM137.273,5.685a1.287,1.287,0,0,1,.393-.967,1.7,1.7,0,0,1,2.138,0,1.279,1.279,0,0,1,.4.967,1.283,1.283,0,0,1-.4.977,1.676,1.676,0,0,1-2.125,0A1.283,1.283,0,0,1,137.273,5.685Zm4.521,7.333a5.8,5.8,0,0,1,.561-2.6,4.1,4.1,0,0,1,1.614-1.763,4.709,4.709,0,0,1,2.446-.624,4.455,4.455,0,0,1,3.232,1.212,4.863,4.863,0,0,1,1.4,3.291l.018.669A5.114,5.114,0,0,1,149.8,16.82a4.871,4.871,0,0,1-6.75,0,5.2,5.2,0,0,1-1.261-3.689Zm2.613.186a3.657,3.657,0,0,0,.524,2.133,1.884,1.884,0,0,0,2.984.009,4,4,0,0,0,.533-2.332,3.62,3.62,0,0,0-.533-2.119,1.734,1.734,0,0,0-1.5-.752,1.706,1.706,0,0,0-1.483.747A4.069,4.069,0,0,0,144.407,13.2Z" transform="translate(725.539 1997.491)" fill="#3366c2"/>
    <path id="Trazado_104672" data-name="Trazado 104672" d="M77.257,4.835l3.382,9.548L84,4.835h3.563V18H84.843V14.4l.271-6.212L81.561,18H79.7L76.154,8.2l.271,6.2V18H73.712V4.835Zm12.1,8.183a5.8,5.8,0,0,1,.561-2.6A4.1,4.1,0,0,1,91.53,8.66a4.709,4.709,0,0,1,2.446-.624,4.455,4.455,0,0,1,3.232,1.212,4.863,4.863,0,0,1,1.4,3.291l.018.669a5.113,5.113,0,0,1-1.257,3.612,4.871,4.871,0,0,1-6.75,0,5.2,5.2,0,0,1-1.261-3.689Zm2.613.186a3.657,3.657,0,0,0,.524,2.133,1.884,1.884,0,0,0,2.984.009,4,4,0,0,0,.533-2.332,3.62,3.62,0,0,0-.533-2.119,1.734,1.734,0,0,0-1.5-.752,1.706,1.706,0,0,0-1.483.747A4.069,4.069,0,0,0,91.968,13.2Zm7.857-.167a5.9,5.9,0,0,1,1.026-3.644,3.33,3.33,0,0,1,2.808-1.356,3,3,0,0,1,2.36,1.067V4.112h2.622V18h-2.36l-.127-1.04a3.075,3.075,0,0,1-2.514,1.221,3.321,3.321,0,0,1-2.771-1.361A6.086,6.086,0,0,1,99.826,13.036Zm2.613.186a3.883,3.883,0,0,0,.479,2.116,1.56,1.56,0,0,0,1.392.736,1.748,1.748,0,0,0,1.709-1.026V11.169a1.723,1.723,0,0,0-1.691-1.026Q102.439,10.143,102.439,13.222Zm12.731,4.959a4.8,4.8,0,0,1-3.5-1.32,4.692,4.692,0,0,1-1.352-3.517V13.09a5.91,5.91,0,0,1,.57-2.636,4.181,4.181,0,0,1,1.614-1.79,4.53,4.53,0,0,1,2.383-.628A4.06,4.06,0,0,1,118.04,9.3a5.144,5.144,0,0,1,1.153,3.59v1.067h-6.23a2.428,2.428,0,0,0,.764,1.537,2.31,2.31,0,0,0,1.614.579,2.821,2.821,0,0,0,2.36-1.094l1.284,1.438a3.923,3.923,0,0,1-1.591,1.3A5.221,5.221,0,0,1,115.17,18.181Zm-.3-8.038a1.633,1.633,0,0,0-1.261.527,2.728,2.728,0,0,0-.619,1.508h3.635v-.209a1.945,1.945,0,0,0-.47-1.349A1.685,1.685,0,0,0,114.871,10.143ZM123.434,18h-2.622V4.112h2.622Zm1.745-4.982a5.8,5.8,0,0,1,.561-2.6,4.1,4.1,0,0,1,1.614-1.763,4.709,4.709,0,0,1,2.446-.624,4.455,4.455,0,0,1,3.232,1.212,4.863,4.863,0,0,1,1.4,3.291l.018.669a5.114,5.114,0,0,1-1.257,3.612,4.871,4.871,0,0,1-6.75,0,5.2,5.2,0,0,1-1.261-3.689Zm2.613.186a3.657,3.657,0,0,0,.524,2.133,1.884,1.884,0,0,0,2.984.009,4,4,0,0,0,.533-2.332,3.62,3.62,0,0,0-.533-2.119,1.734,1.734,0,0,0-1.5-.752,1.706,1.706,0,0,0-1.483.747A4.069,4.069,0,0,0,127.792,13.2Z" transform="translate(970.188 1997.491)" fill="#3366c2"/>
    <g id="Grupo_55698" data-name="Grupo 55698" transform="translate(274.668 1624.508)">
      <path id="Trazado_104501" data-name="Trazado 104501" d="M222.9,374.688a.992.992,0,0,1-.5-.138L169.456,343.2a.989.989,0,1,1,1.007-1.7l52.946,31.353a.99.99,0,0,1-.507,1.841Z" transform="translate(6.891 28.154)" fill="#5793ce"/>
      <g id="Grupo_55697" data-name="Grupo 55697" transform="translate(119.332 138.548)">
        <path id="Trazado_104502" data-name="Trazado 104502" d="M239.481,252.075l20.361-11.755a8.009,8.009,0,0,1,7.249,0l56.2,32.446c2,1.156,2,3.029,0,4.185l-20.36,11.755a8.012,8.012,0,0,1-7.25,0l-56.2-32.446C237.48,255.1,237.48,253.23,239.481,252.075Z" transform="translate(-102.861 -124.54)" fill="#173d7a" opacity="0.5"/>
        <path id="Trazado_104503" data-name="Trazado 104503" d="M271.408,233.248l20.36-11.755a8.012,8.012,0,0,1,7.25,0l56.2,32.446c2,1.156,2,3.029,0,4.185l-20.361,11.755a8.009,8.009,0,0,1-7.249,0l-56.2-32.446C269.406,236.277,269.406,234.4,271.408,233.248Z" transform="translate(-98.429 -127.154)" fill="#173d7a" opacity="0.5"/>
        <path id="Trazado_104504" data-name="Trazado 104504" d="M168.868,378.306l65.786-37.513c2.406-1.388,2.1-3.815-.674-5.418l-37.852-21.854c-2.778-1.6-6.98-1.778-9.386-.389l-65.786,37.513c-2.405,1.388-2.1,3.815.674,5.418l37.852,21.854C162.26,379.52,166.462,379.694,168.868,378.306Z" transform="translate(-119.332 -114.442)" fill="#173d7a" opacity="0.5"/>
        <g id="Grupo_55669" data-name="Grupo 55669" transform="translate(134.7)">
          <g id="Grupo_55663" data-name="Grupo 55663" transform="translate(34.95)">
            <g id="Grupo_55659" data-name="Grupo 55659" transform="translate(0 84.627)">
              <path id="Trazado_104505" data-name="Trazado 104505" d="M270.958,220.929c-3.541,2.044-3.541,5.371,0,7.415L331.151,263.1a3.9,3.9,0,0,0,3.526,0,1.075,1.075,0,0,0,0-2.036l-60.193-34.752c-1.6-.922-1.6-2.422,0-3.345l5.833-3.368c-.648-.975-1.237-1.99-1.812-3.025Z" transform="translate(-268.302 -212.343)" fill="#d4ecff"/>
              <path id="Trazado_104506" data-name="Trazado 104506" d="M354.966,249.145l-60.193-34.752a14.213,14.213,0,0,0-12.844,0l-4.668,2.7c.575,1.035,1.164,2.05,1.812,3.025l6.382-3.684a6.407,6.407,0,0,1,5.792,0L351.44,251.18a3.894,3.894,0,0,0,3.526,0A1.074,1.074,0,0,0,354.966,249.145Z" transform="translate(-267.059 -212.859)" fill="#5793ce"/>
            </g>
            <path id="Trazado_104507" data-name="Trazado 104507" d="M356.572,260.354l.006-84.641L293.5,140.548l-8.821-.582-8.53,5.525-5.235,4.556,61.459,97.46,20.066,11.827Z" transform="translate(-267.94 -138.351)" fill="#5793ce"/>
            <path id="Trazado_104508" data-name="Trazado 104508" d="M325.716,266.364l18.854-10.885v-81.8l-19.436,9.035Z" transform="translate(-260.413 -133.671)" fill="#79b1e0"/>
            <path id="Trazado_104509" data-name="Trazado 104509" d="M268.3,149.395v84.5l66.219,37.877.884-.354V186.794Z" transform="translate(-268.302 -137.042)" fill="#d4ecff"/>
            <g id="Grupo_55660" data-name="Grupo 55660" transform="translate(5.23 4.968)">
              <path id="Trazado_104510" data-name="Trazado 104510" d="M304.91,150.994l-13.16-7.562a6.461,6.461,0,0,0-5.446.163l-12.215,7.052a1.868,1.868,0,0,0-1.152,2.008l33.256,19.871,26.711,16.4,18.919-10.975Z" transform="translate(-272.895 -142.91)" fill="#fff"/>
            </g>
            <path id="Trazado_104511" data-name="Trazado 104511" d="M325.134,181.069V268.44a3.552,3.552,0,0,0,1.654-.415,1.247,1.247,0,0,0,.727-1l0,0V182.4Z" transform="translate(-260.413 -132.645)" fill="#5793ce"/>
            <path id="Trazado_104512" data-name="Trazado 104512" d="M346.189,172.411v-1.055h-.336l-.1.717Z" transform="translate(-257.551 -133.994)" fill="#fff"/>
            <path id="Trazado_104513" data-name="Trazado 104513" d="M327.265,183.33v-1.081l-.325.459Z" transform="translate(-260.162 -132.481)" fill="#fff"/>
            <g id="Grupo_55661" data-name="Grupo 55661">
              <path id="Trazado_104514" data-name="Trazado 104514" d="M331.151,189.3,270.958,154.55c-3.541-2.045-3.541-5.372,0-7.416l12.215-7.052a14.209,14.209,0,0,1,12.844,0l60.193,34.752a1.074,1.074,0,0,1,0,2.035,3.894,3.894,0,0,1-3.526,0l-60.194-34.752a6.407,6.407,0,0,0-5.792,0l-12.215,7.052c-1.6.922-1.6,2.422,0,3.345l60.193,34.752a1.075,1.075,0,0,1,0,2.036A3.9,3.9,0,0,1,331.151,189.3Z" transform="translate(-268.302 -138.548)" fill="#d4ecff"/>
            </g>
            <path id="Trazado_104515" data-name="Trazado 104515" d="M313.528,224.318l-31.279-18.059V174.9l31.279,18.059Z" transform="translate(-266.366 -133.501)" fill="#fff"/>
            <g id="Grupo_55662" data-name="Grupo 55662" transform="translate(0.003 2.877)">
              <path id="Trazado_104516" data-name="Trazado 104516" d="M355.6,176.519a3.894,3.894,0,0,1-3.526,0l-60.193-34.752a6.407,6.407,0,0,0-5.792,0l-12.215,7.052c-1.045.6-1.4,1.455-1.078,2.23a2.429,2.429,0,0,1,1.078-1.115l12.215-7.052a6.407,6.407,0,0,1,5.792,0l60.193,34.752a3.894,3.894,0,0,0,3.526,0c.738-.426.913-1.052.533-1.575A1.688,1.688,0,0,1,355.6,176.519Z" transform="translate(-267.698 -141.074)" fill="#fff"/>
              <path id="Trazado_104517" data-name="Trazado 104517" d="M334.677,187.735a3.9,3.9,0,0,1-3.526,0l-60.193-34.752a4.864,4.864,0,0,1-2.6-3.151c-.279,1.523.585,3.1,2.6,4.265l60.193,34.753a3.9,3.9,0,0,0,3.526,0c.738-.426.913-1.052.533-1.576A1.691,1.691,0,0,1,334.677,187.735Z" transform="translate(-268.305 -139.859)" fill="#fff"/>
            </g>
          </g>
          <g id="Grupo_55668" data-name="Grupo 55668" transform="translate(0 21.679)">
            <g id="Grupo_55664" data-name="Grupo 55664" transform="translate(0 84.627)">
              <path id="Trazado_104518" data-name="Trazado 104518" d="M240.269,239.965c-3.542,2.044-3.542,5.371,0,7.415l60.192,34.753a3.9,3.9,0,0,0,3.526,0,1.075,1.075,0,0,0,0-2.036l-60.192-34.752c-1.6-.922-1.6-2.422,0-3.345l5.832-3.367c-.648-.975-1.236-1.99-1.811-3.025Z" transform="translate(-237.613 -231.379)" fill="#ff2c9c"/>
              <path id="Trazado_104519" data-name="Trazado 104519" d="M324.276,268.181l-60.192-34.752a14.215,14.215,0,0,0-12.845,0l-4.667,2.7c.575,1.035,1.163,2.05,1.811,3.025l6.382-3.684a6.41,6.41,0,0,1,5.793,0l60.192,34.752a3.894,3.894,0,0,0,3.526,0A1.074,1.074,0,0,0,324.276,268.181Z" transform="translate(-236.369 -231.895)" fill="#d3008d"/>
            </g>
            <path id="Trazado_104520" data-name="Trazado 104520" d="M325.882,279.39l.006-84.641-63.079-35.164L253.988,159l-8.531,5.525-5.235,4.556,61.459,97.46,20.066,11.827Z" transform="translate(-237.25 -157.387)" fill="#d3008d"/>
            <path id="Trazado_104521" data-name="Trazado 104521" d="M295.026,285.4l18.854-10.885v-81.8l-19.436,9.034Z" transform="translate(-229.723 -152.707)" fill="#e573b5"/>
            <path id="Trazado_104522" data-name="Trazado 104522" d="M237.614,168.431v84.5l66.219,37.877.884-.354V205.83Z" transform="translate(-237.612 -156.078)" fill="#ff2c9c"/>
            <g id="Grupo_55665" data-name="Grupo 55665" transform="translate(5.231 4.968)">
              <path id="Trazado_104523" data-name="Trazado 104523" d="M274.221,170.03l-13.16-7.562a6.463,6.463,0,0,0-5.447.163L243.4,169.684a1.865,1.865,0,0,0-1.151,2.007L275.5,191.562l26.712,16.4,18.918-10.975Z" transform="translate(-242.206 -161.946)" fill="#fff"/>
            </g>
            <path id="Trazado_104524" data-name="Trazado 104524" d="M294.445,200.105v87.371a3.546,3.546,0,0,0,1.652-.415,1.246,1.246,0,0,0,.728-1l0,0V201.433Z" transform="translate(-229.723 -151.681)" fill="#d3008d"/>
            <path id="Trazado_104525" data-name="Trazado 104525" d="M315.5,191.447v-1.055h-.336l-.1.717Z" transform="translate(-226.861 -153.03)" fill="#fff"/>
            <path id="Trazado_104526" data-name="Trazado 104526" d="M296.575,202.366v-1.081l-.325.459Z" transform="translate(-229.472 -151.518)" fill="#fff"/>
            <g id="Grupo_55666" data-name="Grupo 55666">
              <path id="Trazado_104527" data-name="Trazado 104527" d="M300.461,208.338l-60.192-34.752c-3.542-2.045-3.542-5.372,0-7.416l12.214-7.052a14.211,14.211,0,0,1,12.845,0L325.52,193.87a1.074,1.074,0,0,1,0,2.035,3.894,3.894,0,0,1-3.526,0L261.8,161.153a6.41,6.41,0,0,0-5.793,0L243.795,168.2c-1.6.922-1.6,2.422,0,3.345L303.987,206.3a1.075,1.075,0,0,1,0,2.036A3.9,3.9,0,0,1,300.461,208.338Z" transform="translate(-237.613 -157.584)" fill="#ff2c9c"/>
            </g>
            <path id="Trazado_104528" data-name="Trazado 104528" d="M282.838,243.354,251.559,225.3V193.939L282.838,212Z" transform="translate(-235.676 -152.537)" fill="#fff"/>
            <g id="Grupo_55667" data-name="Grupo 55667" transform="translate(0.004 2.877)">
              <path id="Trazado_104529" data-name="Trazado 104529" d="M324.912,195.555a3.894,3.894,0,0,1-3.526,0L261.194,160.8a6.41,6.41,0,0,0-5.793,0l-12.214,7.052c-1.047.6-1.4,1.455-1.078,2.23a2.424,2.424,0,0,1,1.078-1.115l12.214-7.052a6.41,6.41,0,0,1,5.793,0l60.192,34.752a3.894,3.894,0,0,0,3.526,0c.738-.426.914-1.052.534-1.575A1.692,1.692,0,0,1,324.912,195.555Z" transform="translate(-237.008 -160.111)" fill="#fff"/>
              <path id="Trazado_104530" data-name="Trazado 104530" d="M303.986,206.771a3.9,3.9,0,0,1-3.526,0l-60.192-34.752a4.86,4.86,0,0,1-2.6-3.151c-.28,1.523.584,3.1,2.6,4.265l60.192,34.753a3.9,3.9,0,0,0,3.526,0c.738-.426.914-1.052.534-1.575A1.721,1.721,0,0,1,303.986,206.771Z" transform="translate(-237.616 -158.895)" fill="#fff"/>
            </g>
          </g>
        </g>
        <g id="Grupo_55674" data-name="Grupo 55674" transform="translate(222.335 121.941)">
          <g id="Grupo_55673" data-name="Grupo 55673">
            <g id="Grupo_55672" data-name="Grupo 55672">
              <g id="Grupo_55670" data-name="Grupo 55670" transform="translate(12.802 10.831)">
                <rect id="Rect치ngulo_5699" data-name="Rect치ngulo 5699" width="7.408" height="15.985" transform="translate(17.07 10.103) rotate(129.2)" fill="#5793ce"/>
                <path id="Trazado_104531" data-name="Trazado 104531" d="M338.606,269.9a5.791,5.791,0,0,0,3.311-4.06c.267-1.649-.782-2.5-2.344-1.911a5.79,5.79,0,0,0-3.311,4.059C336,269.637,337.044,270.493,338.606,269.9Z" transform="translate(-324.36 -253.941)" fill="#5793ce"/>
              </g>
              <g id="Grupo_55671" data-name="Grupo 55671">
                <rect id="Rect치ngulo_5700" data-name="Rect치ngulo 5700" width="12.004" height="16.329" transform="translate(21.1 10.816) rotate(129.199)" fill="#5793ce"/>
                <path id="Trazado_104532" data-name="Trazado 104532" d="M332.278,256.594l4.192,3.42a9.585,9.585,0,0,1-4.682,5.741l-4.193-3.419A9.589,9.589,0,0,1,332.278,256.594Z" transform="translate(-312.756 -244.102)" fill="#396caa"/>
                <path id="Trazado_104533" data-name="Trazado 104533" d="M329.545,264.669a9.381,9.381,0,0,0,5.365-6.578c.433-2.672-1.268-4.058-3.8-3.1a9.378,9.378,0,0,0-5.365,6.578C325.314,264.245,327.015,265.631,329.545,264.669Z" transform="translate(-313.022 -244.366)" fill="#5793ce"/>
                <path id="Trazado_104534" data-name="Trazado 104534" d="M318.43,255.6a9.382,9.382,0,0,0,5.364-6.578c.433-2.672-1.267-4.059-3.8-3.1a9.382,9.382,0,0,0-5.364,6.578C314.2,255.179,315.9,256.566,318.43,255.6Z" transform="translate(-314.565 -245.624)" fill="#5793ce"/>
                <path id="Trazado_104535" data-name="Trazado 104535" d="M318.523,253.231a5.305,5.305,0,0,0,3.035-3.721c.245-1.511-.717-2.3-2.148-1.753a5.307,5.307,0,0,0-3.035,3.722C316.131,252.991,317.093,253.776,318.523,253.231Z" transform="translate(-314.319 -245.352)" fill="#d4ecff"/>
              </g>
            </g>
          </g>
          <path id="Trazado_104536" data-name="Trazado 104536" d="M338.456,265.4c.607.5,1.2.27,1.327-.5a2.714,2.714,0,0,0-.873-2.3c-.607-.5-1.2-.27-1.326.5A2.716,2.716,0,0,0,338.456,265.4Z" transform="translate(-311.373 -243.305)" fill="#d4ecff"/>
        </g>
        <path id="Trazado_104537" data-name="Trazado 104537" d="M229.608,395.252a12.508,12.508,0,0,1-6.464-1.828l-8.766-5.192a.99.99,0,0,1,1.009-1.7l8.77,5.2a10.553,10.553,0,0,0,15.972-9.789l-.187-2.643c-3.078-43.274-8.808-123.824,25.141-132.512a264.308,264.308,0,0,0,25.547-7.949c17.421-6.236,18.615-5.892,42.632,12.246a.99.99,0,0,1-1.192,1.58c-23.856-18.016-24.171-17.9-40.773-11.961a266.614,266.614,0,0,1-25.721,8c-32.348,8.279-26.7,87.756-23.659,130.454l.188,2.643a12.338,12.338,0,0,1-5.949,11.574A12.478,12.478,0,0,1,229.608,395.252Z" transform="translate(-106.205 -125.134)" fill="#5793ce"/>
        <g id="Grupo_55676" data-name="Grupo 55676" transform="translate(149.343 107.398)">
          <ellipse id="Elipse_4080" data-name="Elipse 4080" cx="32.114" cy="18.541" rx="32.114" ry="18.541" transform="translate(8.538 141.688)" fill="#173d7a" opacity="0.5"/>
          <g id="Grupo_55675" data-name="Grupo 55675" transform="translate(18.807 17.039)">
            <path id="Trazado_104538" data-name="Trazado 104538" d="M301.21,367.275a4.955,4.955,0,0,1,2.8,4.956,8.311,8.311,0,0,1-.408,2.423c-.575,1.208-2.462,2.866-5.472,1.676s-9.7-7.473-9.949-11.585C287.712,357.107,296.448,365.242,301.21,367.275Z" transform="translate(-264.046 -232.03)" fill="#173d7a"/>
            <path id="Trazado_104539" data-name="Trazado 104539" d="M286.46,378.38s.722,4.4.371,5.211-2.446,2.53-5.543,2.158-12-3.444-13.986-9.313c-3.075-9.1,17.193.682,17.193.682Z" transform="translate(-266.985 -230.5)" fill="#173d7a"/>
            <path id="Trazado_104540" data-name="Trazado 104540" d="M276.528,316.339l-.69,68.757a4.816,4.816,0,0,0,3.746,4.766c.261.044.539.08.837.106a4.281,4.281,0,0,0,4.085-1.69,5.037,5.037,0,0,0,.919-2.775l.878-29.352,4.382-26.243,6.063,46.447a4.012,4.012,0,0,0,1.666,3.059,4.648,4.648,0,0,0,2.764.749,5.08,5.08,0,0,0,3.675-1.81,3.687,3.687,0,0,0,.878-2.487l-2.4-27.947-.894-35.646Z" transform="translate(-265.756 -238.869)" fill="#d4ecff"/>
            <path id="Trazado_104541" data-name="Trazado 104541" d="M284.928,261.8l1.088,6.266a2.872,2.872,0,0,1-2.347,2.73c-2.386.592-3.124-.949-3.124-.949l-1.08-7.056Z" transform="translate(-265.253 -245.876)" fill="#ffc2b0"/>
            <path id="Trazado_104542" data-name="Trazado 104542" d="M273.472,263.928c3.988,3.972,10.078,4.3,13.6.741s3.149-9.671-.839-13.642-10.077-4.3-13.6-.741S269.484,259.957,273.472,263.928Z" transform="translate(-266.537 -247.817)" fill="#ffc2b0"/>
            <path id="Trazado_104543" data-name="Trazado 104543" d="M285.431,267.746c.165-.067,10.126-6.481,13.808.231,6,10.944,5.651,46.175,3.755,50.738-1.754,4.224-6.135,7.337-9.205,9.091a18.378,18.378,0,0,1-8.935,2.542c-3.112.025-9.082-2.742-8.865-6.811,1-18.716-.658-34.493-2.187-49.8C273.8,273.736,275.712,271.68,285.431,267.746Z" transform="translate(-266.039 -245.443)" fill="#5793ce"/>
            <path id="Trazado_104544" data-name="Trazado 104544" d="M288.875,327.758l6.063,46.447a4.012,4.012,0,0,0,1.666,3.059,4.365,4.365,0,0,0,.517.293c-1.258-.944-4.933-39.93-5.613-44.267S288.875,327.758,288.875,327.758Z" transform="translate(-263.946 -236.72)" fill="#396caa"/>
          </g>
          <path id="Trazado_104545" data-name="Trazado 104545" d="M256.7,271.521l-5.413-17.728,2.859-1.185,6.381,13.892Z" transform="translate(-250.357 -230.113)" fill="#ffc2b0"/>
          <path id="Trazado_104546" data-name="Trazado 104546" d="M304.842,259.2l-4.057-18.457-3.231.036,1.214,15.307Z" transform="translate(-243.934 -231.76)" fill="#ffc2b0"/>
          <path id="Trazado_104547" data-name="Trazado 104547" d="M276.275,273.908s-9.726,1.941-15.909-9.383a1.538,1.538,0,0,0-2.566-.27c-.992,1.511-2.3,3.825-1.625,6.326,3.012,11.067,19.361,13.512,22.3,19.93S276.275,273.908,276.275,273.908Z" transform="translate(-249.705 -228.576)" fill="#5793ce"/>
          <path id="Trazado_104548" data-name="Trazado 104548" d="M289.561,267.1s7.7.592,8.81-6.074a50.965,50.965,0,0,0,.774-6.664,1.344,1.344,0,0,1,1.51-1.306c1.845.229,4.7.779,5.087,2.015.579,1.846,1.667,10.9-5.94,24.789C294.819,288.953,289.561,267.1,289.561,267.1Z" transform="translate(-245.044 -230.053)" fill="#5793ce"/>
          <path id="Trazado_104549" data-name="Trazado 104549" d="M301.361,241.879l-.074-2.1a4.338,4.338,0,0,0-.629-2.1l-2.133-3.5-.557-.7a1.621,1.621,0,0,0-2.132-.364l-.491.309a2.016,2.016,0,0,0-.938,1.836l1.1,2.994-1.4-.27a.5.5,0,0,0-.582.4h0a.494.494,0,0,0,.3.547l2.279.92,2.07,2.929Z" transform="translate(-244.493 -232.855)" fill="#ffc2b0"/>
          <path id="Trazado_104550" data-name="Trazado 104550" d="M251.324,254.969l-.645-2a4.332,4.332,0,0,1-.123-2.19l.817-4.021.286-.848a1.62,1.62,0,0,1,1.881-1.066l.566.123a2.019,2.019,0,0,1,1.507,1.408l-.022,3.192,1.221-.729a.5.5,0,0,1,.683.178h0a.5.5,0,0,1-.1.617l-1.831,1.639-1.069,3.887Z" transform="translate(-250.47 -231.196)" fill="#ffc2b0"/>
          <path id="Trazado_104551" data-name="Trazado 104551" d="M280.3,285.661c.887,4.044-1.6,35.431,6.5,43.2-3.112.025-9.081-2.743-8.865-6.811a248.973,248.973,0,0,0-.742-34.419c-3.176-4.115-11.912-6.734-17.378-12.01C260.21,275.745,279.422,281.658,280.3,285.661Z" transform="translate(-249.174 -226.918)" fill="#396caa"/>
          <path id="Trazado_104552" data-name="Trazado 104552" d="M288.334,266.02l-1.383-1.42s-2.276,2.324-4.1,2.727a21.441,21.441,0,0,1-3.275.678l-.891,2.455S285.928,269.941,288.334,266.02Z" transform="translate(-246.554 -228.448)" fill="#fff"/>
          <path id="Trazado_104553" data-name="Trazado 104553" d="M279.857,261.324a1.169,1.169,0,0,1-1.074,0c-.589-.31-1.543-2.651-2.767-2.479-1.915.268-4.69,4.289-8.143-1.32-1.795-2.917-.743-4.49-1.616-6.145,0,0,.307.9,7.825-3.691s13.666,1,15.571,4.2,3.143,9.447-1.79,12.973c-.819.584-6.084-.459-6.192-.9s1.3-1.15.5-2.183A1.653,1.653,0,0,0,279.857,261.324Z" transform="translate(-248.279 -231.036)" fill="#173d7a"/>
        </g>
        <g id="Grupo_55696" data-name="Grupo 55696" transform="translate(0 33.774)">
          <g id="Grupo_55688" data-name="Grupo 55688">
            <g id="Grupo_55679" data-name="Grupo 55679">
              <path id="Trazado_104554" data-name="Trazado 104554" d="M119.344,350.008h0V206.844l56.915-14.9,10.483-6.053c2.406-1.389,6.609-1.215,9.386.388l9.781,5.647,30.356-.017-8.989,138.2a2.721,2.721,0,0,1-1.611,2.516l-56.8,42.856c-2.406,1.388-6.609,1.214-9.386-.389l-37.852-21.854C120.027,352.323,119.254,351.124,119.344,350.008Z" transform="translate(-119.331 -165.88)" fill="#396caa"/>
              <path id="Trazado_104555" data-name="Trazado 104555" d="M185.672,184.964a10.827,10.827,0,0,1,5.031,1.319l9.781,5.647,30.356-.017V335.462a2.718,2.718,0,0,1-1.611,2.515L163.444,375.49a8.493,8.493,0,0,1-4.356.93l-.679-144.447Z" transform="translate(-113.907 -165.879)" fill="#d4ecff"/>
              <path id="Trazado_104556" data-name="Trazado 104556" d="M163.214,370.262a10.687,10.687,0,0,1-7.5-.085V224.744h7.5Z" transform="translate(-114.282 -160.357)" fill="#5793ce"/>
              <path id="Trazado_104557" data-name="Trazado 104557" d="M168.868,234.317l65.786-37.512c2.406-1.389,2.1-3.816-.674-5.42l-37.852-21.854c-2.778-1.6-6.98-1.778-9.386-.388l-65.786,37.512c-2.405,1.389-2.1,3.815.674,5.418l37.852,21.854C162.26,235.532,166.462,235.706,168.868,234.317Z" transform="translate(-119.332 -168.205)" fill="#d4ecff"/>
              <path id="Trazado_104558" data-name="Trazado 104558" d="M121.629,206.38l37.852,21.854c2.778,1.6,6.98,1.778,9.386.389l65.786-37.513a3.619,3.619,0,0,0,1.2-1.065c.827,1.33.452,2.773-1.2,3.727l-65.786,37.512c-2.406,1.389-6.609,1.215-9.386-.389l-37.852-21.854c-2.159-1.246-2.815-2.987-1.874-4.354A5.245,5.245,0,0,0,121.629,206.38Z" transform="translate(-119.331 -165.173)" fill="#fafdff"/>
              <g id="Grupo_55678" data-name="Grupo 55678" transform="translate(24.495 12.136)">
                <path id="Trazado_104559" data-name="Trazado 104559" d="M164.022,217.634l43.8-25.389c1.125-.65.984-1.786-.315-2.536l-17.713-10.227a4.885,4.885,0,0,0-4.392-.182l-43.8,25.39c-1.125.649-.984,1.785.315,2.535l17.713,10.227A4.881,4.881,0,0,0,164.022,217.634Z" transform="translate(-140.841 -178.862)" fill="#173d7a"/>
                <g id="Grupo_55677" data-name="Grupo 55677" transform="translate(18.182 11.207)">
                  <path id="Trazado_104560" data-name="Trazado 104560" d="M182.35,192.019l2.538-1.465c.156-.09.136-.247-.044-.351l-2.451-1.416a.674.674,0,0,0-.607-.025l-2.538,1.466c-.155.09-.136.247.044.351l2.45,1.414A.677.677,0,0,0,182.35,192.019Z" transform="translate(-153.706 -188.703)" fill="#d4ecff"/>
                  <path id="Trazado_104561" data-name="Trazado 104561" d="M174.9,196.3l2.537-1.465c.156-.09.137-.247-.043-.351l-2.451-1.416a.677.677,0,0,0-.608-.025L171.8,194.51c-.156.09-.137.247.043.351l2.451,1.414A.673.673,0,0,0,174.9,196.3Z" transform="translate(-154.739 -188.108)" fill="#ff2c9c"/>
                  <path id="Trazado_104562" data-name="Trazado 104562" d="M167.459,200.582,170,199.117c.156-.09.136-.247-.043-.351L167.5,197.35a.677.677,0,0,0-.608-.025l-2.538,1.466c-.155.09-.135.247.044.351l2.451,1.416A.674.674,0,0,0,167.459,200.582Z" transform="translate(-155.773 -187.514)" fill="#d4ecff"/>
                  <path id="Trazado_104563" data-name="Trazado 104563" d="M160.014,204.863l2.537-1.466c.156-.09.137-.247-.043-.351l-2.451-1.414a.674.674,0,0,0-.608-.026l-2.537,1.466c-.156.09-.137.247.043.351l2.451,1.416A.677.677,0,0,0,160.014,204.863Z" transform="translate(-156.806 -186.92)" fill="#d4ecff"/>
                </g>
                <path id="Trazado_104564" data-name="Trazado 104564" d="M207.82,192.245l-.052.03c-.085-.06-.164-.124-.263-.181l-17.713-10.227a4.881,4.881,0,0,0-4.392-.181l-43.747,25.358c-1.037-.742-1.092-1.754-.052-2.354l43.8-25.39a4.885,4.885,0,0,1,4.392.182L207.5,189.709C208.8,190.46,208.945,191.6,207.82,192.245Z" transform="translate(-140.84 -178.862)" fill="#5793ce"/>
              </g>
            </g>
            <g id="Grupo_55681" data-name="Grupo 55681" transform="translate(5.32 64.241)">
              <path id="Trazado_104565" data-name="Trazado 104565" d="M151.443,254.851l-24.9-14.259A6.074,6.074,0,0,1,124,235.743v-8.906c0-1.868,1.135-2.726,2.537-1.918l24.9,14.258a6.08,6.08,0,0,1,2.537,4.848v8.906C153.98,254.8,152.844,255.659,151.443,254.851Z" transform="translate(-124.003 -224.616)" fill="#173d7a"/>
              <path id="Trazado_104566" data-name="Trazado 104566" d="M125.307,224.647a2.49,2.49,0,0,0-.637,1.853v8.906a6.077,6.077,0,0,0,2.537,4.848l24.9,14.258a1.823,1.823,0,0,0,1.233.269,1.515,1.515,0,0,1-1.9.066l-24.9-14.259A6.074,6.074,0,0,1,124,235.739v-8.906C124,225.565,124.533,224.779,125.307,224.647Z" transform="translate(-124.003 -224.612)" fill="#fff"/>
              <g id="Grupo_55680" data-name="Grupo 55680" transform="translate(9.474 10.85)">
                <path id="Trazado_104567" data-name="Trazado 104567" d="M141.867,243.316,139.582,242a1.327,1.327,0,0,1-.553-1.057V238.5c0-.407.248-.594.553-.418l2.284,1.319a1.325,1.325,0,0,1,.553,1.057v2.44C142.42,243.3,142.172,243.493,141.867,243.316Z" transform="translate(-131.391 -233.606)" fill="#396caa"/>
                <path id="Trazado_104568" data-name="Trazado 104568" d="M135.16,239.443l-2.284-1.319a1.322,1.322,0,0,1-.553-1.057v-2.439c0-.408.247-.594.553-.419l2.284,1.32a1.322,1.322,0,0,1,.552,1.056v2.44C135.712,239.433,135.465,239.62,135.16,239.443Z" transform="translate(-132.322 -234.143)" fill="#fff"/>
              </g>
            </g>
            <g id="Grupo_55683" data-name="Grupo 55683" transform="translate(5.32 128.593)">
              <path id="Trazado_104569" data-name="Trazado 104569" d="M151.443,311.359,126.54,297.1A6.074,6.074,0,0,1,124,292.251v-8.906c0-1.868,1.135-2.727,2.537-1.918l24.9,14.258a6.078,6.078,0,0,1,2.537,4.848v8.906C153.98,311.309,152.844,312.167,151.443,311.359Z" transform="translate(-124.003 -281.123)" fill="#173d7a"/>
              <path id="Trazado_104570" data-name="Trazado 104570" d="M125.307,281.155a2.49,2.49,0,0,0-.637,1.853v8.906a6.077,6.077,0,0,0,2.537,4.848l24.9,14.258a1.829,1.829,0,0,0,1.233.269,1.515,1.515,0,0,1-1.9.066L126.54,297.1A6.074,6.074,0,0,1,124,292.247v-8.906C124,282.073,124.533,281.287,125.307,281.155Z" transform="translate(-124.003 -281.119)" fill="#fff"/>
              <g id="Grupo_55682" data-name="Grupo 55682" transform="translate(9.474 10.85)">
                <path id="Trazado_104571" data-name="Trazado 104571" d="M141.867,299.824l-2.284-1.32a1.323,1.323,0,0,1-.553-1.056v-2.44c0-.408.248-.594.553-.418l2.284,1.319a1.325,1.325,0,0,1,.553,1.057v2.439C142.42,299.813,142.172,300,141.867,299.824Z" transform="translate(-131.391 -290.114)" fill="#ff2c9c"/>
                <path id="Trazado_104572" data-name="Trazado 104572" d="M135.16,295.951l-2.284-1.319a1.322,1.322,0,0,1-.553-1.057v-2.439c0-.408.247-.594.553-.419l2.284,1.32a1.322,1.322,0,0,1,.552,1.056v2.44C135.712,295.941,135.465,296.128,135.16,295.951Z" transform="translate(-132.322 -290.651)" fill="#fff"/>
              </g>
            </g>
            <g id="Grupo_55685" data-name="Grupo 55685" transform="translate(5.32 160.77)">
              <path id="Trazado_104573" data-name="Trazado 104573" d="M151.443,339.611l-24.9-14.258A6.073,6.073,0,0,1,124,320.505V311.6c0-1.868,1.135-2.728,2.537-1.918l24.9,14.258a6.077,6.077,0,0,1,2.537,4.848v8.906C153.98,339.563,152.844,340.421,151.443,339.611Z" transform="translate(-124.003 -309.377)" fill="#173d7a"/>
              <path id="Trazado_104574" data-name="Trazado 104574" d="M125.307,309.409a2.49,2.49,0,0,0-.637,1.853v8.906a6.077,6.077,0,0,0,2.537,4.848l24.9,14.258a1.829,1.829,0,0,0,1.233.269,1.513,1.513,0,0,1-1.9.065l-24.9-14.258A6.074,6.074,0,0,1,124,320.5V311.6C124,310.327,124.533,309.541,125.307,309.409Z" transform="translate(-124.003 -309.373)" fill="#fff"/>
              <g id="Grupo_55684" data-name="Grupo 55684" transform="translate(9.474 10.85)">
                <path id="Trazado_104575" data-name="Trazado 104575" d="M141.867,328.078l-2.284-1.32a1.323,1.323,0,0,1-.553-1.056v-2.44c0-.408.248-.594.553-.418l2.284,1.319a1.325,1.325,0,0,1,.553,1.057v2.441C142.42,328.067,142.172,328.254,141.867,328.078Z" transform="translate(-131.391 -318.367)" fill="#396caa"/>
                <path id="Trazado_104576" data-name="Trazado 104576" d="M135.16,324.205l-2.284-1.319a1.322,1.322,0,0,1-.553-1.057V319.39c0-.408.247-.6.553-.419l2.284,1.319a1.326,1.326,0,0,1,.552,1.057v2.44C135.712,324.195,135.465,324.382,135.16,324.205Z" transform="translate(-132.322 -318.905)" fill="#fff"/>
              </g>
            </g>
            <g id="Grupo_55687" data-name="Grupo 55687" transform="translate(5.32 96.418)">
              <path id="Trazado_104577" data-name="Trazado 104577" d="M151.443,283.1l-24.9-14.258A6.074,6.074,0,0,1,124,264v-8.906c0-1.868,1.135-2.726,2.537-1.918l24.9,14.258a6.078,6.078,0,0,1,2.537,4.848v8.906C153.98,283.054,152.844,283.913,151.443,283.1Z" transform="translate(-124.003 -252.87)" fill="#173d7a"/>
              <path id="Trazado_104578" data-name="Trazado 104578" d="M125.307,252.9a2.49,2.49,0,0,0-.637,1.853v8.906a6.077,6.077,0,0,0,2.537,4.848l24.9,14.258a1.829,1.829,0,0,0,1.233.269,1.513,1.513,0,0,1-1.9.065l-24.9-14.258A6.074,6.074,0,0,1,124,263.993v-8.906C124,253.819,124.533,253.033,125.307,252.9Z" transform="translate(-124.003 -252.866)" fill="#fff"/>
              <g id="Grupo_55686" data-name="Grupo 55686" transform="translate(9.474 10.85)">
                <path id="Trazado_104579" data-name="Trazado 104579" d="M141.867,271.57l-2.284-1.319a1.327,1.327,0,0,1-.553-1.057v-2.44c0-.408.248-.594.553-.418l2.284,1.319a1.325,1.325,0,0,1,.553,1.057v2.439C142.42,271.559,142.172,271.746,141.867,271.57Z" transform="translate(-131.391 -261.86)" fill="#396caa"/>
                <path id="Trazado_104580" data-name="Trazado 104580" d="M135.16,267.7l-2.284-1.319a1.322,1.322,0,0,1-.553-1.057v-2.439c0-.408.247-.594.553-.418l2.284,1.319a1.322,1.322,0,0,1,.552,1.056v2.441C135.712,267.687,135.465,267.874,135.16,267.7Z" transform="translate(-132.322 -262.398)" fill="#fff"/>
              </g>
            </g>
          </g>
          <g id="Grupo_55689" data-name="Grupo 55689" transform="translate(52 34.746)">
            <path id="Trazado_104581" data-name="Trazado 104581" d="M167.322,249.33l57.452-33.17a5.578,5.578,0,0,0,2.329-4.449V200.755c0-1.714-1.043-2.5-2.329-1.759l-57.452,33.17a5.574,5.574,0,0,0-2.329,4.448v10.955C164.993,249.284,166.035,250.071,167.322,249.33Z" transform="translate(-164.993 -198.716)" fill="#5793ce"/>
            <path id="Trazado_104582" data-name="Trazado 104582" d="M168.63,245l54.154-31.266a2.829,2.829,0,0,0,1.181-2.257v-8.236c0-.87-.528-1.27-1.181-.893L168.63,233.616a2.829,2.829,0,0,0-1.181,2.257v8.236C167.449,244.98,167.977,245.379,168.63,245Z" transform="translate(-164.652 -198.231)" fill="#d4ecff" opacity="0.4"/>
            <path id="Trazado_104583" data-name="Trazado 104583" d="M206.269,215.355l8.082-4.666A2.748,2.748,0,0,0,215.5,208.5h0c0-.844-.514-1.232-1.147-.867l-8.082,4.666a2.748,2.748,0,0,0-1.147,2.192h0C205.122,215.334,205.636,215.721,206.269,215.355Z" transform="translate(-159.422 -197.497)" fill="#d4ecff"/>
            <path id="Trazado_104584" data-name="Trazado 104584" d="M200.081,216.848c0,.845.593,1.187,1.324.764a2.927,2.927,0,0,0,1.326-2.294c0-.845-.593-1.188-1.326-.765A2.929,2.929,0,0,0,200.081,216.848Z" transform="translate(-160.122 -196.542)" fill="#173d7a"/>
            <path id="Trazado_104585" data-name="Trazado 104585" d="M195.978,219.217c0,.845.593,1.187,1.324.764a2.924,2.924,0,0,0,1.324-2.294c0-.845-.592-1.188-1.324-.765A2.929,2.929,0,0,0,195.978,219.217Z" transform="translate(-160.692 -196.213)" fill="#173d7a"/>
            <path id="Trazado_104586" data-name="Trazado 104586" d="M191.875,221.586c0,.845.592,1.187,1.324.765a2.929,2.929,0,0,0,1.324-2.295c0-.845-.593-1.188-1.324-.765A2.926,2.926,0,0,0,191.875,221.586Z" transform="translate(-161.261 -195.884)" fill="#d4ecff"/>
            <path id="Trazado_104587" data-name="Trazado 104587" d="M187.771,223.955c0,.845.593,1.187,1.324.764a2.924,2.924,0,0,0,1.326-2.294c0-.845-.593-1.188-1.326-.765A2.929,2.929,0,0,0,187.771,223.955Z" transform="translate(-161.831 -195.556)" fill="#173d7a"/>
            <path id="Trazado_104588" data-name="Trazado 104588" d="M170.576,236.552l2.722-1.572a1.763,1.763,0,0,0,.737-1.406v-2.88c0-.542-.33-.792-.737-.557l-2.722,1.572a1.762,1.762,0,0,0-.736,1.406v2.88C169.84,236.538,170.169,236.786,170.576,236.552Z" transform="translate(-164.32 -194.366)" fill="#173d7a"/>
          </g>
          <g id="Grupo_55690" data-name="Grupo 55690" transform="translate(52 54.064)">
            <path id="Trazado_104589" data-name="Trazado 104589" d="M167.322,266.293l57.452-33.17a5.577,5.577,0,0,0,2.329-4.448V217.719c0-1.715-1.043-2.5-2.329-1.761l-57.452,33.17a5.575,5.575,0,0,0-2.329,4.449v10.955C164.993,266.247,166.035,267.035,167.322,266.293Z" transform="translate(-164.993 -215.679)" fill="#5793ce"/>
            <path id="Trazado_104590" data-name="Trazado 104590" d="M168.63,261.966,222.784,230.7a2.83,2.83,0,0,0,1.181-2.257v-8.237c0-.869-.528-1.269-1.181-.893L168.63,250.581a2.829,2.829,0,0,0-1.181,2.257v8.236C167.449,261.944,167.977,262.343,168.63,261.966Z" transform="translate(-164.652 -215.194)" fill="#d4ecff" opacity="0.4"/>
            <path id="Trazado_104591" data-name="Trazado 104591" d="M206.269,232.319l8.082-4.666a2.75,2.75,0,0,0,1.147-2.192h0c0-.845-.514-1.233-1.147-.867l-8.082,4.666a2.748,2.748,0,0,0-1.147,2.192h0C205.122,232.3,205.636,232.685,206.269,232.319Z" transform="translate(-159.422 -214.46)" fill="#d4ecff"/>
            <path id="Trazado_104592" data-name="Trazado 104592" d="M200.081,233.812c0,.844.593,1.187,1.324.764a2.928,2.928,0,0,0,1.326-2.295c0-.844-.593-1.187-1.326-.764A2.929,2.929,0,0,0,200.081,233.812Z" transform="translate(-160.122 -213.505)" fill="#fff"/>
            <path id="Trazado_104593" data-name="Trazado 104593" d="M195.978,236.181c0,.844.593,1.187,1.324.764a2.926,2.926,0,0,0,1.324-2.295c0-.844-.592-1.187-1.324-.764A2.929,2.929,0,0,0,195.978,236.181Z" transform="translate(-160.692 -213.176)" fill="#173d7a"/>
            <path id="Trazado_104594" data-name="Trazado 104594" d="M191.875,238.55c0,.844.592,1.187,1.324.764a2.929,2.929,0,0,0,1.324-2.294c0-.845-.593-1.188-1.324-.765A2.926,2.926,0,0,0,191.875,238.55Z" transform="translate(-161.261 -212.847)" fill="#d4ecff"/>
            <path id="Trazado_104595" data-name="Trazado 104595" d="M187.771,240.919c0,.844.593,1.187,1.324.764a2.927,2.927,0,0,0,1.326-2.294c0-.845-.593-1.188-1.326-.765A2.929,2.929,0,0,0,187.771,240.919Z" transform="translate(-161.831 -212.518)" fill="#173d7a"/>
            <path id="Trazado_104596" data-name="Trazado 104596" d="M170.576,253.516l2.722-1.572a1.763,1.763,0,0,0,.737-1.406v-2.88c0-.542-.33-.791-.737-.557l-2.722,1.572a1.762,1.762,0,0,0-.736,1.406v2.88C169.84,253.5,170.169,253.75,170.576,253.516Z" transform="translate(-164.32 -211.329)" fill="#173d7a"/>
          </g>
          <g id="Grupo_55691" data-name="Grupo 55691" transform="translate(52 73.382)">
            <path id="Trazado_104597" data-name="Trazado 104597" d="M167.322,283.257l57.452-33.17a5.577,5.577,0,0,0,2.329-4.448V234.683c0-1.715-1.043-2.5-2.329-1.761l-57.452,33.17a5.574,5.574,0,0,0-2.329,4.449V281.5C164.993,283.211,166.035,284,167.322,283.257Z" transform="translate(-164.993 -232.643)" fill="#5793ce"/>
            <path id="Trazado_104598" data-name="Trazado 104598" d="M168.63,278.931l54.154-31.266a2.827,2.827,0,0,0,1.181-2.257v-8.236c0-.87-.528-1.27-1.181-.893L168.63,267.545a2.829,2.829,0,0,0-1.181,2.257v8.236C167.449,278.908,167.977,279.307,168.63,278.931Z" transform="translate(-164.652 -232.158)" fill="#d4ecff" opacity="0.4"/>
            <path id="Trazado_104599" data-name="Trazado 104599" d="M206.269,249.284l8.082-4.667a2.746,2.746,0,0,0,1.147-2.191h0c0-.845-.514-1.233-1.147-.868l-8.082,4.667a2.748,2.748,0,0,0-1.147,2.191h0C205.122,249.261,205.636,249.649,206.269,249.284Z" transform="translate(-159.422 -231.424)" fill="#d4ecff"/>
            <path id="Trazado_104600" data-name="Trazado 104600" d="M200.081,250.775c0,.845.593,1.188,1.324.765a2.928,2.928,0,0,0,1.326-2.295c0-.845-.593-1.187-1.326-.764A2.927,2.927,0,0,0,200.081,250.775Z" transform="translate(-160.122 -230.469)" fill="#fff"/>
            <path id="Trazado_104601" data-name="Trazado 104601" d="M195.978,253.144c0,.845.593,1.188,1.324.765a2.926,2.926,0,0,0,1.324-2.295c0-.845-.592-1.187-1.324-.764A2.929,2.929,0,0,0,195.978,253.144Z" transform="translate(-160.692 -230.14)" fill="#173d7a"/>
            <path id="Trazado_104602" data-name="Trazado 104602" d="M191.875,255.513c0,.845.592,1.188,1.324.765a2.929,2.929,0,0,0,1.324-2.295c0-.845-.593-1.187-1.324-.764A2.926,2.926,0,0,0,191.875,255.513Z" transform="translate(-161.261 -229.811)" fill="#d4ecff"/>
            <path id="Trazado_104603" data-name="Trazado 104603" d="M187.771,257.882c0,.845.593,1.188,1.324.765a2.928,2.928,0,0,0,1.326-2.295c0-.844-.593-1.187-1.326-.764A2.929,2.929,0,0,0,187.771,257.882Z" transform="translate(-161.831 -229.482)" fill="#173d7a"/>
            <path id="Trazado_104604" data-name="Trazado 104604" d="M170.576,270.48l2.722-1.573a1.763,1.763,0,0,0,.737-1.406v-2.88c0-.542-.33-.792-.737-.556l-2.722,1.572a1.762,1.762,0,0,0-.736,1.406v2.88C169.84,270.465,170.169,270.714,170.576,270.48Z" transform="translate(-164.32 -228.293)" fill="#173d7a"/>
          </g>
          <g id="Grupo_55692" data-name="Grupo 55692" transform="translate(52 92.701)">
            <path id="Trazado_104605" data-name="Trazado 104605" d="M167.322,300.221l57.452-33.17A5.578,5.578,0,0,0,227.1,262.6V251.646c0-1.714-1.043-2.5-2.329-1.759l-57.452,33.17a5.574,5.574,0,0,0-2.329,4.448V298.46C164.993,300.175,166.035,300.963,167.322,300.221Z" transform="translate(-164.993 -249.607)" fill="#5793ce"/>
            <path id="Trazado_104606" data-name="Trazado 104606" d="M168.63,295.895l54.154-31.266a2.829,2.829,0,0,0,1.181-2.257v-8.236c0-.87-.528-1.27-1.181-.893L168.63,284.507a2.83,2.83,0,0,0-1.181,2.257V295C167.449,295.871,167.977,296.27,168.63,295.895Z" transform="translate(-164.652 -249.122)" fill="#d4ecff" opacity="0.4"/>
            <path id="Trazado_104607" data-name="Trazado 104607" d="M206.269,266.246l8.082-4.666a2.748,2.748,0,0,0,1.147-2.192h0c0-.844-.514-1.232-1.147-.867l-8.082,4.666a2.75,2.75,0,0,0-1.147,2.192h0C205.122,266.225,205.636,266.613,206.269,266.246Z" transform="translate(-159.422 -248.388)" fill="#d4ecff"/>
            <path id="Trazado_104608" data-name="Trazado 104608" d="M200.081,267.739c0,.845.593,1.187,1.324.764a2.924,2.924,0,0,0,1.326-2.294c0-.845-.593-1.188-1.326-.765A2.929,2.929,0,0,0,200.081,267.739Z" transform="translate(-160.122 -247.433)" fill="#173d7a"/>
            <path id="Trazado_104609" data-name="Trazado 104609" d="M195.978,270.108c0,.845.593,1.187,1.324.765a2.926,2.926,0,0,0,1.324-2.295c0-.845-.592-1.187-1.324-.765A2.929,2.929,0,0,0,195.978,270.108Z" transform="translate(-160.692 -247.104)" fill="#173d7a"/>
            <path id="Trazado_104610" data-name="Trazado 104610" d="M191.875,272.477c0,.845.592,1.187,1.324.765a2.929,2.929,0,0,0,1.324-2.295c0-.845-.593-1.187-1.324-.765A2.926,2.926,0,0,0,191.875,272.477Z" transform="translate(-161.261 -246.775)" fill="#d4ecff"/>
            <path id="Trazado_104611" data-name="Trazado 104611" d="M187.771,274.846c0,.845.593,1.187,1.324.765a2.928,2.928,0,0,0,1.326-2.295c0-.845-.593-1.187-1.326-.764A2.925,2.925,0,0,0,187.771,274.846Z" transform="translate(-161.831 -246.446)" fill="#173d7a"/>
            <path id="Trazado_104612" data-name="Trazado 104612" d="M170.576,287.443l2.722-1.572a1.763,1.763,0,0,0,.737-1.406v-2.88c0-.542-.33-.792-.737-.557l-2.722,1.572a1.762,1.762,0,0,0-.736,1.406v2.881C169.84,287.429,170.169,287.677,170.576,287.443Z" transform="translate(-164.32 -245.257)" fill="#d4ecff"/>
          </g>
          <g id="Grupo_55693" data-name="Grupo 55693" transform="translate(52 112.019)">
            <path id="Trazado_104613" data-name="Trazado 104613" d="M167.322,317.184l57.452-33.17a5.577,5.577,0,0,0,2.329-4.448V268.61c0-1.715-1.043-2.5-2.329-1.761l-57.452,33.17a5.575,5.575,0,0,0-2.329,4.449v10.955C164.993,317.138,166.035,317.926,167.322,317.184Z" transform="translate(-164.993 -266.57)" fill="#5793ce"/>
            <path id="Trazado_104614" data-name="Trazado 104614" d="M168.63,312.857l54.154-31.265a2.829,2.829,0,0,0,1.181-2.257V271.1c0-.87-.528-1.27-1.181-.893L168.63,301.471a2.829,2.829,0,0,0-1.181,2.257v8.236C167.449,312.835,167.977,313.234,168.63,312.857Z" transform="translate(-164.652 -266.084)" fill="#d4ecff" opacity="0.4"/>
            <path id="Trazado_104615" data-name="Trazado 104615" d="M206.269,283.21l8.082-4.666a2.748,2.748,0,0,0,1.147-2.192h0c0-.845-.514-1.232-1.147-.867l-8.082,4.666a2.748,2.748,0,0,0-1.147,2.192h0C205.122,283.188,205.636,283.576,206.269,283.21Z" transform="translate(-159.422 -265.351)" fill="#d4ecff"/>
            <path id="Trazado_104616" data-name="Trazado 104616" d="M200.081,284.7c0,.844.593,1.187,1.324.764a2.927,2.927,0,0,0,1.326-2.294c0-.845-.593-1.188-1.326-.765A2.929,2.929,0,0,0,200.081,284.7Z" transform="translate(-160.122 -264.396)" fill="#173d7a"/>
            <path id="Trazado_104617" data-name="Trazado 104617" d="M195.978,287.072c0,.845.593,1.187,1.324.764a2.926,2.926,0,0,0,1.324-2.294c0-.845-.592-1.188-1.324-.765A2.93,2.93,0,0,0,195.978,287.072Z" transform="translate(-160.692 -264.067)" fill="#fff"/>
            <path id="Trazado_104618" data-name="Trazado 104618" d="M191.875,289.441c0,.844.592,1.187,1.324.764a2.929,2.929,0,0,0,1.324-2.294c0-.845-.593-1.188-1.324-.765A2.926,2.926,0,0,0,191.875,289.441Z" transform="translate(-161.261 -263.738)" fill="#d4ecff"/>
            <path id="Trazado_104619" data-name="Trazado 104619" d="M187.771,291.81c0,.845.593,1.187,1.324.764a2.927,2.927,0,0,0,1.326-2.294c0-.845-.593-1.188-1.326-.765A2.929,2.929,0,0,0,187.771,291.81Z" transform="translate(-161.831 -263.409)" fill="#fff"/>
            <path id="Trazado_104620" data-name="Trazado 104620" d="M170.576,304.407l2.722-1.572a1.763,1.763,0,0,0,.737-1.406v-2.88c0-.542-.33-.792-.737-.557l-2.722,1.572a1.762,1.762,0,0,0-.736,1.406v2.88C169.84,304.392,170.169,304.641,170.576,304.407Z" transform="translate(-164.32 -262.22)" fill="#d4ecff"/>
          </g>
          <g id="Grupo_55694" data-name="Grupo 55694" transform="translate(52 131.338)">
            <path id="Trazado_104621" data-name="Trazado 104621" d="M167.322,334.148l57.452-33.17a5.577,5.577,0,0,0,2.329-4.448V285.574c0-1.715-1.043-2.5-2.329-1.761l-57.452,33.17a5.575,5.575,0,0,0-2.329,4.449v10.954C164.993,334.1,166.035,334.89,167.322,334.148Z" transform="translate(-164.993 -283.534)" fill="#5793ce"/>
            <path id="Trazado_104622" data-name="Trazado 104622" d="M168.63,329.822l54.154-31.266a2.827,2.827,0,0,0,1.181-2.257v-8.236c0-.869-.528-1.27-1.181-.893L168.63,318.436a2.829,2.829,0,0,0-1.181,2.257v8.236C167.449,329.8,167.977,330.2,168.63,329.822Z" transform="translate(-164.652 -283.049)" fill="#d4ecff" opacity="0.4"/>
            <path id="Trazado_104623" data-name="Trazado 104623" d="M206.269,300.175l8.082-4.666a2.75,2.75,0,0,0,1.147-2.192h0c0-.845-.514-1.233-1.147-.868l-8.082,4.667a2.748,2.748,0,0,0-1.147,2.191h0C205.122,300.152,205.636,300.54,206.269,300.175Z" transform="translate(-159.422 -282.315)" fill="#d4ecff"/>
            <path id="Trazado_104624" data-name="Trazado 104624" d="M200.081,301.666c0,.845.593,1.188,1.324.765a2.928,2.928,0,0,0,1.326-2.295c0-.844-.593-1.187-1.326-.764A2.929,2.929,0,0,0,200.081,301.666Z" transform="translate(-160.122 -281.36)" fill="#173d7a"/>
            <path id="Trazado_104625" data-name="Trazado 104625" d="M195.978,304.035c0,.845.593,1.188,1.324.765a2.926,2.926,0,0,0,1.324-2.295c0-.844-.592-1.187-1.324-.764A2.929,2.929,0,0,0,195.978,304.035Z" transform="translate(-160.692 -281.031)" fill="#173d7a"/>
            <path id="Trazado_104626" data-name="Trazado 104626" d="M191.875,306.4c0,.844.592,1.187,1.324.764a2.929,2.929,0,0,0,1.324-2.295c0-.844-.593-1.187-1.324-.764A2.926,2.926,0,0,0,191.875,306.4Z" transform="translate(-161.261 -280.702)" fill="#d4ecff"/>
            <path id="Trazado_104627" data-name="Trazado 104627" d="M187.771,308.773c0,.845.593,1.188,1.324.765a2.927,2.927,0,0,0,1.326-2.295c0-.844-.593-1.187-1.326-.764A2.929,2.929,0,0,0,187.771,308.773Z" transform="translate(-161.831 -280.373)" fill="#173d7a"/>
            <path id="Trazado_104628" data-name="Trazado 104628" d="M170.576,321.371,173.3,319.8a1.764,1.764,0,0,0,.737-1.408v-2.88c0-.542-.33-.792-.737-.556l-2.722,1.572a1.762,1.762,0,0,0-.736,1.406v2.88C169.84,321.356,170.169,321.605,170.576,321.371Z" transform="translate(-164.32 -279.184)" fill="#173d7a"/>
          </g>
          <g id="Grupo_55695" data-name="Grupo 55695" transform="translate(52 150.657)">
            <path id="Trazado_104629" data-name="Trazado 104629" d="M167.322,351.112l57.452-33.17a5.578,5.578,0,0,0,2.329-4.449V302.537c0-1.714-1.043-2.5-2.329-1.759l-57.452,33.17a5.574,5.574,0,0,0-2.329,4.448v10.955C164.993,351.066,166.035,351.854,167.322,351.112Z" transform="translate(-164.993 -300.498)" fill="#5793ce"/>
            <path id="Trazado_104630" data-name="Trazado 104630" d="M168.63,346.786l54.154-31.266a2.829,2.829,0,0,0,1.181-2.257v-8.236c0-.87-.528-1.27-1.181-.893L168.63,335.4a2.826,2.826,0,0,0-1.181,2.256v8.237C167.449,346.763,167.977,347.162,168.63,346.786Z" transform="translate(-164.652 -300.013)" fill="#d4ecff" opacity="0.4"/>
            <path id="Trazado_104631" data-name="Trazado 104631" d="M206.269,317.137l8.082-4.666a2.748,2.748,0,0,0,1.147-2.191h0c0-.845-.514-1.233-1.147-.868l-8.082,4.667a2.746,2.746,0,0,0-1.147,2.191h0C205.122,317.116,205.636,317.5,206.269,317.137Z" transform="translate(-159.422 -299.279)" fill="#d4ecff"/>
            <path id="Trazado_104632" data-name="Trazado 104632" d="M198.784,319.816c0,1.6,1.121,2.242,2.5,1.445a5.532,5.532,0,0,0,2.5-4.334c0-1.6-1.121-2.242-2.5-1.444A5.53,5.53,0,0,0,198.784,319.816Z" transform="translate(-160.302 -298.465)" fill="#fff"/>
            <path id="Trazado_104633" data-name="Trazado 104633" d="M190.285,324.521c0,.845.593,1.188,1.326.765a2.929,2.929,0,0,0,1.324-2.295c0-.844-.593-1.187-1.324-.764A2.927,2.927,0,0,0,190.285,324.521Z" transform="translate(-161.482 -297.506)" fill="#173d7a"/>
            <path id="Trazado_104634" data-name="Trazado 104634" d="M186.182,326.89c0,.845.593,1.188,1.324.765a2.927,2.927,0,0,0,1.324-2.295c0-.844-.592-1.187-1.324-.764A2.929,2.929,0,0,0,186.182,326.89Z" transform="translate(-162.052 -297.177)" fill="#d4ecff"/>
            <path id="Trazado_104635" data-name="Trazado 104635" d="M182.079,329.26c0,.844.593,1.187,1.324.764a2.929,2.929,0,0,0,1.324-2.295c0-.844-.593-1.187-1.324-.764A2.929,2.929,0,0,0,182.079,329.26Z" transform="translate(-162.621 -296.848)" fill="#173d7a"/>
            <path id="Trazado_104636" data-name="Trazado 104636" d="M170.576,338.334l2.722-1.572a1.763,1.763,0,0,0,.737-1.406v-2.88c0-.542-.33-.792-.737-.557l-2.722,1.572a1.766,1.766,0,0,0-.736,1.408v2.88C169.84,338.32,170.169,338.569,170.576,338.334Z" transform="translate(-164.32 -296.148)" fill="#d4ecff"/>
          </g>
        </g>
      </g>
    </g>
  </g>
</svg>
